<?xml version="1.0" encoding="utf-8"?>
<!-- Generator: Adobe Illustrator 16.0.0, SVG Export Plug-In . SVG Version: 6.00 Build 0)  -->
<!DOCTYPE svg PUBLIC "-//W3C//DTD SVG 1.1//EN" "http://www.w3.org/Graphics/SVG/1.1/DTD/svg11.dtd">
<svg version="1.1" xmlns="http://www.w3.org/2000/svg" xmlns:xlink="http://www.w3.org/1999/xlink" x="0px" y="0px" width="100px"
	 height="100px" viewBox="0 0 100 100" enable-background="new 0 0 100 100" xml:space="preserve">
<g id="Capa_1">
	<g opacity="0.5">
		<path d="M92.729,17.604c-1.362-1.363-2.978-2.045-4.843-2.045h-6.888v-5.167c0-2.367-0.844-4.395-2.529-6.081
			c-1.688-1.686-3.713-2.529-6.082-2.529h-3.443c-2.368,0-4.396,0.843-6.081,2.53c-1.688,1.686-2.529,3.713-2.529,6.081v5.166
			H39.669v-5.166c0-2.368-0.843-4.395-2.53-6.081c-1.686-1.687-3.713-2.53-6.081-2.53h-3.443c-2.368,0-4.396,0.843-6.082,2.53
			c-1.686,1.686-2.529,3.713-2.529,6.081v5.166h-6.888c-1.866,0-3.48,0.682-4.844,2.045c-1.363,1.363-2.045,2.979-2.045,4.844V91.33
			c0,1.865,0.682,3.479,2.045,4.844c1.363,1.363,2.978,2.045,4.844,2.045h75.77c1.865,0,3.48-0.682,4.843-2.045
			c1.364-1.363,2.046-2.979,2.046-4.844V22.447C94.773,20.582,94.092,18.967,92.729,17.604z M27.613,91.33H12.115v-15.5h15.498
			V91.33z M27.613,72.387H12.115V55.168h15.498V72.387z M27.613,51.721H12.115V36.224h15.498V51.721z M26.403,27.102
			c-0.341-0.341-0.512-0.743-0.512-1.21V10.393c0-0.466,0.171-0.87,0.512-1.21c0.341-0.341,0.743-0.512,1.211-0.512h3.443
			c0.467,0,0.87,0.17,1.21,0.512c0.342,0.34,0.513,0.744,0.513,1.21v15.499c0,0.467-0.172,0.869-0.513,1.21
			c-0.34,0.341-0.743,0.512-1.21,0.512h-3.443C27.147,27.613,26.744,27.442,26.403,27.102z M48.278,91.33H31.057v-15.5h17.222V91.33
			L48.278,91.33z M48.278,72.387H31.057V55.168h17.222V72.387L48.278,72.387z M48.278,51.721H31.057V36.224h17.222V51.721
			L48.278,51.721z M68.943,91.33H51.723v-15.5h17.221V91.33z M68.943,72.387H51.723V55.168h17.221V72.387z M68.943,51.721H51.723
			V36.224h17.221V51.721z M67.732,27.102c-0.341-0.341-0.51-0.743-0.51-1.21V10.393c0-0.466,0.169-0.87,0.51-1.21
			c0.34-0.341,0.744-0.512,1.211-0.512h3.443c0.468,0,0.87,0.17,1.212,0.512c0.34,0.34,0.51,0.744,0.51,1.21v15.499
			c0,0.467-0.17,0.869-0.51,1.21c-0.341,0.341-0.744,0.512-1.212,0.512h-3.443C68.478,27.613,68.071,27.442,67.732,27.102z
			 M87.885,91.33H72.386v-15.5h15.499V91.33z M87.885,72.387H72.386V55.168h15.499V72.387z M87.885,51.721H72.386V36.224h15.499
			V51.721z"/>
	</g>
</g>
<g id="Capa_2" display="none">
	<g display="inline" opacity="0.5">
		<g>
			<path d="M49.999,1.715c-19.284,0-34.973,15.692-34.973,34.973c0,23.93,31.296,59.069,32.631,60.548
				c1.249,1.397,3.437,1.397,4.687,0c1.335-1.479,32.63-36.618,32.63-60.548C84.974,17.408,69.284,1.715,49.999,1.715z
				 M49.999,54.285c-9.7,0-17.595-7.897-17.595-17.597c0-9.699,7.895-17.592,17.595-17.592c9.704,0,17.597,7.893,17.597,17.592
				C67.596,46.393,59.703,54.285,49.999,54.285z"/>
		</g>
	</g>
</g>
</svg>
