<?xml version="1.0" encoding="utf-8"?>
<!-- Generator: Adobe Illustrator 16.0.0, SVG Export Plug-In . SVG Version: 6.00 Build 0)  -->
<!DOCTYPE svg PUBLIC "-//W3C//DTD SVG 1.1//EN" "http://www.w3.org/Graphics/SVG/1.1/DTD/svg11.dtd">
<svg version="1.1" id="Layer_1" xmlns="http://www.w3.org/2000/svg" xmlns:xlink="http://www.w3.org/1999/xlink" x="0px" y="0px"
	 width="20px" height="20px" viewBox="0 0 20 20" enable-background="new 0 0 20 20" xml:space="preserve">
<g>
	<path fill="#FFFFFF" d="M15.826,4.174c-0.234-0.235-0.614-0.235-0.85,0L10,9.151L5.023,4.174c-0.235-0.235-0.615-0.235-0.849,0
		c-0.235,0.233-0.235,0.614,0,0.848l4.979,4.978l-4.979,4.976c-0.235,0.237-0.235,0.619,0,0.851
		c0.116,0.119,0.271,0.176,0.424,0.176c0.154,0,0.308-0.057,0.425-0.176L10,10.851l4.979,4.975c0.116,0.119,0.27,0.178,0.425,0.178
		c0.151,0,0.307-0.059,0.423-0.178c0.235-0.231,0.235-0.613,0-0.847l-4.978-4.978l4.978-4.978
		C16.062,4.788,16.062,4.408,15.826,4.174z"/>
</g>
</svg>
