<?xml version="1.0" encoding="utf-8"?>
<!-- Generator: Adobe Illustrator 16.0.0, SVG Export Plug-In . SVG Version: 6.00 Build 0)  -->
<!DOCTYPE svg PUBLIC "-//W3C//DTD SVG 1.1//EN" "http://www.w3.org/Graphics/SVG/1.1/DTD/svg11.dtd">
<svg version="1.1" id="Capa_1" xmlns="http://www.w3.org/2000/svg" xmlns:xlink="http://www.w3.org/1999/xlink" x="0px" y="0px"
	 width="25px" height="25px" viewBox="0 0 25 25" enable-background="new 0 0 25 25" xml:space="preserve">
<g enable-background="new    ">
	<path fill="#FFFFFF" d="M12.5,0.556C5.914,0.556,0.555,5.914,0.555,12.5c0,6.585,5.359,11.941,11.945,11.941
		S24.443,19.085,24.443,12.5C24.443,5.914,19.086,0.556,12.5,0.556z M12.5,23.096l-0.333-0.498c-1.195-1.791-1.957-3.396-2.4-5.057
		l-0.134-0.504h5.741l-0.146,0.51c-0.599,2.1-1.633,3.904-2.396,5.051L12.5,23.096z M14.834,22.652l0.523-0.961
		c0.802-1.471,1.354-2.892,1.689-4.344l0.071-0.312h4.562l-0.311,0.588c-1.368,2.585-3.756,3.944-5.518,4.631L14.834,22.652z
		 M10.111,22.632l-0.966-0.376c-1.762-0.688-4.149-2.047-5.517-4.631l-0.311-0.588h4.561l0.072,0.311
		c0.345,1.488,0.905,2.771,1.697,4.356L10.111,22.632z M22.416,15.369h-4.945l0.064-0.457c0.119-0.835,0.119-1.564,0.119-2.411
		c0-0.421-0.03-0.812-0.061-1.204c-0.031-0.412-0.062-0.823-0.062-1.266v-0.4h4.885l0.092,0.273C22.764,10.672,22.9,11.57,22.9,12.5
		c0,0.93-0.137,1.827-0.393,2.595L22.416,15.369z M15.686,15.369H9.313l-0.092-0.643c-0.107-0.737-0.208-1.435-0.208-2.227
		c0-0.791,0.101-1.488,0.208-2.227L9.313,9.63h6.496l0.09,0.618c0.107,0.746,0.211,1.45,0.211,2.252c0,0.6-0.11,1.143-0.217,1.667
		c-0.058,0.276-0.115,0.56-0.156,0.856L15.686,15.369z M7.591,15.369H2.706l-0.091-0.273c-0.256-0.766-0.391-1.662-0.391-2.595
		c0-0.932,0.135-1.83,0.391-2.596l0.091-0.273h4.946l-0.065,0.457c-0.119,0.835-0.119,1.566-0.119,2.413
		c0,0.423,0.03,0.814,0.061,1.205c0.031,0.411,0.062,0.82,0.062,1.263V15.369z M15.366,7.963H9.625l0.146-0.51
		c0.475-1.665,1.304-3.411,2.397-5.05L12.5,1.904l0.333,0.5c1.194,1.794,1.958,3.401,2.399,5.057L15.366,7.963z M21.682,7.962H17.12
		l-0.071-0.31c-0.345-1.497-0.904-2.775-1.695-4.354L14.887,2.37l0.967,0.376c1.763,0.685,4.148,2.043,5.519,4.629L21.682,7.962z
		 M7.88,7.962H3.282l0.355-0.603c1.234-2.097,3.139-3.691,5.508-4.613l0.966-0.375L9.648,3.298C8.856,4.882,8.296,6.163,7.952,7.652
		L7.88,7.962z"/>
</g>
</svg>
