<svg width="50" height="50" viewBox="0 0 50 50" xmlns="http://www.w3.org/2000/svg"><title>Page 1</title><g fill="#FFF" fill-rule="evenodd"><path d="M30.615 34.307c.045-.28.092-.654.115-.937-.034.2-.056.405-.087.61.006-.178.006-1.09.006-1.092-.038-.347-.123-.366-.16-.375-.152.12-.16 1.05.053 1.164-.12.324-.12.324-.17.543-.023-.195-.028-.204-.134-.32.274-.494.083-1.136-.117-1.114-.19.022-.234.414-.26.648-.044-.136-.152-.454-.383-.37-.31.167-.512.87-.04 1.18-.17.22-.17.22-.3.476-.117-.2-.117-.2-.324-.294.58-.473.286-1.092-.022-1.127-.41-.048-.697.62-.428.992.093.128.22.156.31.176-.26.157-.362.294-.462.612-.23-.764-.856-.27-.983-.06-.25.416.034.844.478.717.32-.092.433-.385.495-.54.028.248.088.34.274.416-.2.128-.293.228-.42.448-.196-.56-.824-.162-.98.092-.222.36-.005.685.396.586.257-.063.412-.262.514-.397.016.164.056.226.177.28-.214.168-.214.168-.404.368-.184-.516-.834-.04-.956.178-.16.283.03.49.36.395.258-.074.416-.253.493-.34-.015.157.014.21.134.245-.57.305-.67.62-.532.652.01.003.027.003.04.005-.153.07-.544.248-.657.427-.007.012.002.03.02.033.185.01.68-.267.79-.422.007-.008.008-.02.004-.03-.006-.014-.018-.024-.032-.028l-.012-.004c.168-.07.285-.14.478-.297-.037.06-.05.08-.06.104-.01.025-.004.053.01.073-.19.113-.577.34-.712.47-.008.007 0 .02.01.02.267-.042.607-.31 1.262-.825-.187.212-.257.29-.907.672.07-.038.164-.087.233-.126.164-.1.384-.238.543-.347l.008-.005c.084-.064.305-.233.522-.426l-.12.11c.392-.357.423-.386.63-.62.37-.455.393-.484.585-.788l.095-.16.01-.02c.055-.098.292-.587.292-.59-.013.035-.033.08-.048.113l.09-.213c.07-.19.157-.445.214-.638l-.003.008c-.05.176-.102.328-.15.454.004-.003.162-.575.223-.867-.016.12-.022.157-.044.31.013-.06.033-.14.045-.203m-.537-.304c-.092.166-.092.166-.214.45-.037-.17-.098-.244-.22-.27.146-.16.212-.32.233-.574.056.23.114.33.215.367-.003.008-.01.018-.014.026m.28.86c-.072.126-.128.245-.18.356-.003-.08-.01-.144-.028-.225.087-.164.1-.193.175-.41-.003.15.005.236.046.257-.002.007-.008.014-.01.02m-1.153.564c-.095.11-.095.11-.242.308-.068-.117-.068-.117-.193-.195.147-.11.238-.224.31-.394.055.095.094.172.14.265-.005.004-.012.01-.015.016m.668-.256c-.082.13-.15.223-.176.264-.028-.057-.053-.103-.088-.166.073-.116.13-.214.195-.335.033.08.054.143.078.22l-.01.017m.066.764c-.092.145-.17.25-.204.293.02-.06.032-.112.043-.175.073-.104.13-.192.196-.298-.003.06-.008.105-.022.162l-.013.018m-1.087.533c-.108.116-.194.2-.23.237-.032-.053-.063-.1-.107-.158.1-.09.18-.167.283-.266.026.062.045.11.068.172l-.015.015m.62-.236c-.08.098-.143.17-.17.2 0-.043-.004-.08-.01-.124.063-.072.113-.132.173-.207.01.042.014.077.016.12l-.01.01m-.12.608c-.015.02-.17.185-.348.366.096-.107.145-.174.15-.207.11-.112.195-.205.295-.322-.04.066-.08.13-.08.144l-.017.018m-.97.5c-.13.09-.24.19-.332.278.06-.116.05-.172-.028-.194.13-.09.23-.166.35-.26.016.062.025.108.03.163-.005.004-.013.01-.02.013m.557-.22c-.134.125-.24.217-.287.256.052-.092.052-.095.05-.158.1-.085.18-.156.272-.242-.002.045-.007.082-.018.125l-.018.017"/><path d="M27.243 37.9c-.09.105-.32.278-.582.326h-.003c-.274.028-.295-.154-.13-.336.035-.038.226-.233.54-.29h.002c.32-.034.29.16.173.3M26.927 36.42c-.15.432-.834.58-1.016.22-.116-.234.072-.64.564-.698.333-.025.55.203.453.478M28.204 34.04c-.01.175-.12.492-.476.568h-.006c-.505.046-.686-.527-.395-.886.134-.165.288-.196.354-.21h.003c.4-.035.533.305.52.528M29.667 32.425c.078.404-.15.717-.405.556-.293-.18-.38-.874-.054-1.02.242-.064.414.233.46.465"/><path d="M26.7 37.296c-.163.36-.796.5-.94.208-.107-.22.157-.56.564-.595.35-.014.467.19.377.386M30.158 32.143c.04.157.073.486-.09.602v.002c-.28.12-.482-.616-.377-.916.028-.076.064-.102.086-.117.172-.073.327.208.382.43M26.687 38.46c-.112.083-.32.187-.516.22h-.002c-.217.024-.123-.104-.102-.13.077-.094.305-.25.568-.296h.002c.245-.027.164.093.145.118-.014.02-.04.05-.093.087M30.733 33.204c0 .11-.008.12-.01.128-.046-.04-.108-.91-.088-1.082 0-.005.004-.014.006-.02.002.002.005.002.008.003.006.017.015.038.03.138.024.25.053.584.055.834M26.69 38.664c-.086.03-.2.067-.287.094.24-.078.465-.186.7-.27.022-.008.025-.01.034-.01-.002.003-.003.01-.093.048-.106.04-.245.1-.355.138M28.964 32.652c.068.43-.276.732-.583.514-.32-.227-.33-.863.073-.982h.002c.293-.047.474.246.51.468M27.06 35.358c-.027.15-.182.444-.577.493h-.002c-.526.016-.662-.51-.333-.83.153-.15.32-.175.39-.183h.006c.378-.013.562.26.516.52M30.436 31.852c.043.154.104.476.017.597-.156.128-.372-.58-.343-.877.004-.078.024-.103.037-.12.097-.08.228.184.29.4"/><path d="M26.377 38.02c-.19.287-.75.385-.82.146-.042-.15.168-.4.547-.442.303-.012.377.14.273.297M26.468 38.734c-.08.028-.152.05-.19.06-.1.028-.232.062-.332.085.003-.003.506-.214.71-.265.04-.01.056-.01.064-.004 0 .028-.158.09-.252.124M27.07 34.19c-.013.157-.138.47-.523.517v.002h-.006c-.55.008-.655-.575-.374-.87.135-.142.29-.163.362-.17h.006c.398-.01.552.298.536.52M28.056 32.856c.04.438-.41.7-.74.43-.312-.25-.245-.823.203-.914.357-.028.52.28.536.484M30.493 31.557c.043.142.125.444.116.565-.005.016-.01.037-.04-.006-.092-.146-.28-.81-.263-.936.003-.012.008-.035.037.006.03.043.084.163.15.37"/><path d="M25.985 38.56c-.195.178-.663.267-.65.083.008-.096.184-.254.485-.286.254-.012.26.1.185.18-.005.007-.013.016-.02.022M26.046 38.828c-.137.05-.318.093-.435.11-.04.008-.053.008-.062.004-.004-.036.357-.193.564-.223.098-.014.103.005.09.022-.015.022-.072.054-.156.086M29.258 31.316c.133.34-.002.617-.253.51-.327-.138-.5-.797-.234-.906h.002c.205-.05.408.2.486.396M25.74 36.494c-.03.127-.176.35-.528.37h-.002c-.485-.01-.61-.447-.31-.695.145-.122.303-.132.37-.136.312-.006.53.21.47.46M29.722 31.08c.066.144.14.414.005.51-.258.105-.594-.616-.485-.843.013-.027.03-.04.043-.05.154-.06.348.188.437.383M25.608 37.388c-.12.322-.705.406-.872.123-.113-.19.033-.488.464-.513.29-.006.485.18.408.39M25.813 35.448c-.064.412-.655.58-.928.265-.218-.253-.086-.74.428-.775h.004c.397.012.53.305.496.51M28.61 31.56c.1.353-.142.6-.43.44-.346-.19-.407-.78-.092-.88.2-.042.446.163.523.44M25.432 38.09c-.117.27-.67.323-.767.07-.067-.173.152-.356.434-.362.28.003.392.153.332.29M29.984 30.81c.067.128.174.4.103.502-.15.114-.51-.575-.483-.802.003-.027.012-.04.02-.05.08-.062.248.134.36.35M26.962 33.007c.004.147-.087.436-.444.48h-.002v.002h-.002c-.522.01-.637-.575-.368-.84.11-.107.228-.123.286-.13h.006c.357-.006.523.282.524.487M30.418 31.318l.076.232M25.536 38.898c-.14.065-.496.13-.465.057.027-.057.232-.146.41-.16.156-.01.147.037.12.062-.014.013-.035.026-.064.04M25.82 34.275c-.038.43-.612.614-.89.285-.242-.284-.076-.76.386-.795h.002c.352.008.52.27.5.51M27.768 31.725c.03.146.003.41-.283.47h-.002c-.443.038-.672-.53-.427-.798.07-.08.144-.094.19-.103h.005c.29-.023.476.24.516.43M25.215 38.615c-.035.05-.15.14-.355.15h-.004c-.264-.004-.3-.148-.195-.245.04-.036.133-.098.314-.107.2-.003.317.094.24.202M30.042 30.534c.14.25.226.498.17.493-.075-.008-.45-.653-.443-.814.022-.06.16.118.272.32M25.276 38.997l.232-.033.04-.006c-.083.012-.19.03-.272.04M29.09 30.098c.093.13.195.355.093.432-.223.087-.653-.557-.57-.713.004-.005.01-.016.026-.026.11-.042.32.126.45.308M28.678 30.318c.16.266.104.49-.108.43-.293-.084-.583-.64-.393-.755.006-.002.015-.005.02-.01h.002c.168-.04.38.173.478.335M24.507 37.4c-.056.29-.57.347-.772.086-.155-.2-.012-.46.352-.464.263.01.46.186.42.378M24.536 36.5c-.043.35-.585.45-.828.154-.196-.238-.047-.578.367-.585h.004c.368.025.476.276.456.43M26.757 31.868c.01.13-.053.383-.353.425-.463.01-.597-.516-.374-.755.086-.093.188-.106.237-.113.315-.006.477.255.49.443M25.76 33.088c-.006.148-.106.403-.444.428-.478-.014-.612-.533-.31-.796.057-.05.152-.11.288-.112.336.01.475.287.467.48M28.103 30.514c.13.283-.007.5-.255.4-.32-.127-.504-.653-.263-.75.007-.003.018-.004.025-.007.21-.03.42.195.493.357M24.552 35.47c-.018.132-.138.358-.473.362h-.006c-.475-.04-.596-.536-.287-.766.122-.09.243-.094.3-.095h.002c.362.03.488.31.462.5M24.476 38.104c-.045.237-.504.27-.673.05-.115-.15.004-.333.305-.336h.002c.286.02.386.18.366.286M29.326 29.865c.1.124.227.337.176.416v.002c-.14.095-.604-.517-.583-.673 0-.01.006-.02.01-.026.068-.048.26.11.396.28M24.89 39.034h-.05c.084-.002.165-.018.25-.024.02-.002.054-.003.062 0-.004.002-.005.002-.024.004l-.24.02M24.972 38.94c-.038.026-.13.06-.265.065h-.002c-.17 0-.173-.056-.135-.092.017-.016.083-.07.255-.076.175 0 .197.055.158.093-.003.003-.008.006-.01.01M24.56 34.3c-.02.142-.14.38-.467.386h-.002c-.467-.04-.575-.565-.264-.797.116-.09.23-.09.288-.092h.002c.312.027.472.282.443.502M27.36 30.666c.04.117.054.35-.183.4v.002c-.404.033-.597-.507-.42-.7.043-.048.095-.06.126-.066h.002c.232-.02.42.206.475.364M29.383 29.62c.096.114.242.31.242.393-.035.093-.462-.41-.546-.582-.018-.033-.018-.044-.018-.057.02-.05.18.088.32.248M24.437 38.624c-.035.16-.418.17-.537.012-.067-.086-.006-.208.242-.207h.002c.23.012.31.12.293.194M25.65 31.94c-.006.34-.423.5-.665.254-.224-.227-.116-.663.25-.688h.002c.29.01.416.26.413.434M24.6 39.045l-.112.003c.058-.003.116-.014.175-.015.066 0 .082.004.085.005-.003.003-.003.003-.01.004l-.138.003M24.55 33.112c-.046.347-.482.487-.717.23-.225-.244-.073-.703.317-.695.315.024.423.287.4.465M26.466 30.79c.058.32-.26.456-.493.29-.273-.194-.23-.623.064-.665.19-.013.39.162.43.376M23.327 36.462c0 .028-.025.28-.363.267h-.002c-.408-.05-.55-.454-.308-.625.1-.068.205-.065.25-.064.243.023.437.215.423.422M27.944 29.416c.09.105.185.28.077.334-.238.054-.655-.468-.56-.582.007-.008.017-.015.026-.018.125-.03.346.136.458.266M23.403 37.35c0 .087-.07.23-.313.22h-.002c-.37-.046-.528-.387-.32-.523.083-.055.182-.05.225-.048h.002c.3.036.41.234.408.35M28.28 29.232c.19.186.227.338.128.34-.176.005-.655-.468-.574-.568.002-.004.006-.007.01-.008.09-.035.31.115.436.236M24.403 38.945c-.028.082-.338.068-.39-.018-.02-.035.02-.084.174-.084h.002c.16.01.227.066.213.102M27.458 29.57c.15.217.077.36-.087.328-.27-.056-.52-.5-.387-.597l.033-.013h.002c.155-.018.354.158.44.284M23.29 35.415c-.03.316-.45.42-.69.172-.232-.242-.11-.646.28-.634h.002c.308.042.424.297.408.462M23.516 38.064c.016.178-.29.244-.52.058-.175-.14-.137-.31.073-.328.027-.002.052 0 .07 0 .243.028.367.175.376.27M28.483 29.043c.196.168.268.31.197.32-.13.016-.66-.453-.603-.535.05-.035.255.086.406.215M26.842 29.696c.05.093.092.28-.085.32-.32.026-.528-.436-.396-.574.02-.02.045-.032.076-.036.17-.014.34.16.406.29M23.292 34.237c-.04.34-.452.457-.68.196-.217-.248-.074-.667.308-.654.27.035.393.262.372.457M23.655 38.593c.003.02.016.113-.168.104h-.002c-.24-.027-.4-.187-.31-.263.047-.038.125-.034.157-.032h.003c.195.022.304.125.32.19M28.57 28.827c.125.1.26.235.263.288-.02.04-.193-.085-.266-.14-.163-.123-.34-.28-.35-.33v-.007c.02-.034.203.07.352.19M25.496 30.842c.017.28-.285.433-.5.255-.214-.18-.156-.587.153-.612.22.01.337.22.346.357M24.536 31.94c-.028.314-.415.45-.62.215-.19-.217-.057-.61.283-.62.254.022.35.25.336.404M24.326 39.045c-.05 0-.118-.002-.17-.004 0 0 .01-.008.093-.006.02 0 .02 0 .128.014l-.052-.003M26.106 29.79c.065.213-.096.36-.29.27-.25-.12-.282-.49-.103-.555.012-.005.03-.008.044-.01.17 0 .31.172.35.296M23.336 33.053c-.05.312-.434.422-.63.183-.184-.225-.03-.623.313-.612.26.036.343.273.316.43M23.83 38.922c.014.02.02.05-.09.044-.165-.017-.317-.09-.27-.13.022-.02.082-.017.104-.016h.002c.143.015.232.07.254.102M22.17 36.355c0 .025-.008.24-.28.215h-.006c-.346-.07-.474-.457-.258-.576.067-.038.132-.032.17-.027.197.028.373.213.374.388M27.065 28.64c.095.076.21.203.14.24-.17.04-.578-.356-.55-.417 0-.002.003-.007.013-.012.073-.013.27.09.397.19M22.342 37.252c.022.186-.214.26-.446.08-.2-.157-.208-.38-.015-.407.034-.005.065-.002.09 0 .236.046.36.22.372.327M27.333 28.516c.16.107.244.214.177.228-.113.022-.63-.327-.59-.398l.004-.004c.06-.02.264.076.41.174M26.708 28.763c.14.144.132.246.03.237-.193-.017-.496-.368-.425-.436.005-.006.013-.01.018-.01.083-.016.27.1.378.21M22.076 35.3c-.008.103-.082.273-.313.255h-.002c-.358-.068-.45-.503-.21-.642.075-.043.14-.037.186-.032.25.05.35.276.34.42M27.48 28.368c.135.077.262.176.245.214-.08.05-.63-.306-.628-.353 0-.003.003-.005.003-.007.036-.022.23.06.38.145M22.588 37.978c.005.016.047.157-.154.14h-.002c-.272-.05-.46-.302-.33-.378.022-.01.063-.025.132-.015.208.035.327.174.354.253M24.514 30.85c-.02.258-.304.38-.474.206-.166-.17-.066-.528.21-.538h.004c.21.017.27.208.26.332M22.075 34.126c-.042.285-.378.366-.553.133-.17-.227-.05-.577.26-.55h.006c.232.05.308.273.287.416M23.414 31.9c-.06.273-.395.367-.545.15-.14-.198.01-.537.298-.527.17.014.286.19.246.376M25.306 29.844c.008.083-.024.243-.198.258h-.004c-.267-.016-.32-.364-.176-.498.044-.04.086-.044.113-.047.128-.002.25.132.266.287M26.244 28.856c.11.155.057.253-.064.225-.2-.046-.385-.373-.287-.432l.024-.007c.083-.01.238.092.327.216M22.905 38.527c.043.075-.03.103-.16.065-.186-.056-.336-.198-.255-.242.027-.015.067-.01.092-.008.12.017.278.108.323.185M27.553 28.22c.124.063.262.152.27.19-.012.02-.09-.008-.246-.086-.12-.06-.348-.185-.365-.22V28.1c.014-.02.183.038.34.12M23.82 39.016c-.008 0-.01 0-.012-.002 0 0 .008-.002.048 0 .054.005.106.014.16.018-.06-.004-.137-.01-.196-.016M25.69 28.924c.032.075.042.194-.07.213-.21 0-.328-.32-.237-.407.017-.014.03-.018.048-.02.11 0 .22.124.26.214M22.163 32.937c-.056.262-.366.34-.51.13-.148-.218.032-.54.283-.507.204.04.256.245.227.377M23.276 38.87c.018.01.046.032.025.038-.07.02-.377-.095-.352-.13.01-.012.048-.008.064-.007.122.02.232.078.264.1M24.496 29.858c-.026.193-.232.276-.344.14-.11-.133-.026-.407.167-.413.11.005.196.134.176.273M23.528 30.826c-.066.226-.335.292-.434.108-.087-.162.048-.43.264-.425.137.01.216.16.17.316M21.353 37.09c.006.018.044.172-.137.142h-.003c-.238-.063-.396-.337-.278-.412.035-.023.08-.016.105-.01h.002c.17.043.286.19.31.28M21.088 36.184c.014.178-.165.228-.33.092-.185-.15-.205-.407-.033-.428.024-.003.05 0 .07.004h.002v.002c.187.05.282.223.29.33M26.096 28.043c.136.073.19.13.16.14-.057.02-.496-.212-.487-.26v-.002c.042-.006.213.062.326.123M26.26 27.96c.147.064.224.12.203.132-.038.023-.533-.188-.548-.232.002 0 .002-.002.003-.002.03-.008.204.044.342.103M20.948 35.104c.002.217-.21.29-.373.128-.176-.176-.135-.47.067-.477.014 0 .032.002.045.004.136.03.26.194.26.344M25.87 28.112c.085.06.15.128.108.144-.114.012-.434-.252-.404-.275l.004-.002c.05-.003.2.07.29.134M21.734 37.85c.037.077.002.134-.12.09-.195-.068-.368-.276-.266-.32.024-.008.057-.003.076 0 .114.026.26.134.31.23M26.36 27.876c.116.04.233.094.228.114-.04.017-.57-.172-.568-.2.026-.01.198.034.34.086M25.09 28.957c.012.06.002.176-.11.187h-.002c-.174-.01-.216-.278-.122-.364.02-.02.042-.024.055-.025h.002c.1.005.165.124.18.202M22.34 31.79c-.027.085-.118.223-.29.212h-.002c-.252-.05-.225-.386-.015-.505.047-.026.096-.036.146-.03.168.034.195.21.16.324M20.942 33.947c-.033.206-.245.273-.376.117-.17-.2-.042-.49.152-.473l.022.003c.135.03.228.193.202.354M25.577 28.167c.083.077.105.147.047.145-.106-.002-.325-.238-.29-.275l.012-.006c.053 0 .17.08.23.137M23.485 38.976c.007 0 .014 0 .022.002l.097.014-.12-.016M22.196 38.408c.047.046.048.076.004.074-.12-.007-.383-.178-.343-.223.01-.013.04-.01.062-.006.116.03.23.11.276.154M25.236 28.213c.054.085.034.138-.02.126-.1-.025-.207-.228-.157-.26 0-.002.006-.003.01-.004.044-.002.124.07.166.137M23.69 29.806c-.05.164-.227.233-.3.115-.078-.125.045-.335.197-.335.117.018.124.142.102.22M21.074 32.773c-.055.173-.256.25-.356.084-.104-.168.008-.43.22-.397.118.025.18.168.136.313M22.765 38.79c.042.02.047.025.05.03-.044.01-.333-.1-.325-.12.003-.005.022-.002.033 0 .06.013.17.056.242.09M26.443 27.764c.11.027.21.062.225.077v.002c-.056.017-.442-.09-.482-.12.01-.01.15.015.257.042M22.583 30.722c-.07.167-.26.22-.33.093-.07-.13.06-.36.238-.344.116.02.137.14.093.252M24.487 28.962c-.014.126-.125.19-.196.116-.084-.09-.02-.288.096-.293.086.01.108.11.1.177M25.088 27.603c.094.02.173.04.186.05-.024.003-.425-.09-.426-.093.02 0 .14.023.24.043M20.126 35.952c.017.107-.052.15-.146.09-.144-.09-.212-.318-.104-.347.02-.004.035 0 .05.004.092.027.182.143.2.252M25.04 27.63c.082.023.148.048.158.056-.018.008-.38-.11-.38-.112.012 0 .125.027.223.055M20.474 36.885c.004.013.043.122-.063.095-.155-.058-.285-.278-.212-.316.018-.01.042-.004.056 0 .107.04.193.154.22.22M19.94 34.884c0 .016-.007.152-.13.122h-.002c-.175-.07-.206-.356-.083-.396.023-.007.038-.003.055 0h.002c.113.047.16.188.158.274M21.34 31.618c-.056.142-.23.213-.296.087-.07-.136.068-.348.21-.32.11.03.116.155.085.233M24.864 28.23c.02.082-.02.124-.067.096-.074-.043-.085-.2-.032-.214h.004c.033-.002.077.056.094.118M24.965 27.65c.07.027.123.055.125.063-.013.01-.307-.12-.308-.125.01 0 .107.032.183.06M25.125 27.576c.09.015.17.03.186.038-.008.006-.426-.065-.428-.068.02 0 .135.013.243.03M24.87 27.666c.05.03.083.055.082.062-.016.01-.2-.11-.21-.122.01 0 .078.033.127.06M19.933 33.696c-.008.058-.05.15-.142.13-.148-.057-.147-.313-.032-.365.027-.01.05-.006.064-.003h.002c.102.04.12.164.11.24M25.13 27.547c.084.01.16.02.178.025-.02.005-.388-.04-.39-.04.017 0 .12.006.212.015M23.88 28.933c-.038.093-.137.13-.165.064-.027-.068.046-.202.13-.202.047.006.063.07.035.138M22.906 29.73c-.007.01-.064.112-.16.105-.11-.026-.05-.197.06-.257.035-.016.054-.015.067-.014.06.01.074.086.033.165M24.492 28.226c-.008.074-.055.093-.08.065-.033-.04-.002-.15.045-.153.03.006.038.057.035.09M21.71 30.563c-.025.045-.09.112-.16.104-.1-.03-.05-.195.052-.248.032-.017.057-.017.073-.014.07.02.062.104.034.157M20.107 32.515c-.03.108-.13.145-.18.07-.07-.107.02-.268.11-.253l.01.002c.057.018.084.1.06.18M24.762 27.682c.032.03.04.05.032.05-.022-.003-.11-.098-.107-.107.01 0 .052.033.075.057M22.292 38.675c.045.02.05.02.054.023-.023 0-.21-.077-.215-.083l.012.003c.037.01.102.038.15.057M25.113 27.518c.07.004.13.008.142.013-.01.004-.302-.015-.305-.016.012 0 .096 0 .163.004M20.442 31.396c-.03.063-.1.093-.122.037-.027-.062.035-.167.104-.15.05.018.033.082.018.113M24.643 27.684c.01.023.01.037.002.034-.012-.003-.036-.068-.028-.073.008.002.022.028.026.04M23.294 28.872c-.027.04-.078.052-.084.026-.008-.026.028-.085.08-.1.01-.003.02.004.02.015 0 .01 0 .02-.002.028-.002.01-.007.023-.014.032M25.076 27.49c.04 0 .083.002.124.004h-.207c.005-.002.054-.004.083-.004M16.48 24.367c-.162-.073-.272.083-.236.187.05.15.238.114.32.047.157-.13.088-.3.134-.432.046-.13-.094.254-.217.2"/><path d="M30.563 33.512c-.154 2.956-2.562 5.326-5.565 5.478-3.474.175-6.355-2.66-6.177-6.08.156-2.956 2.563-5.327 5.566-5.477 3.475-.176 6.355 2.66 6.177 6.08M33.53 12.83l.028.138c.23 1.574.222 2.38.097 3.087-.165.937-.458 1.827-1.08 2.82-.5.78-1.24 1.55-2.144 2.454h-.002c-.057.058-.12.124-.18.192-.005.003-.006.006-.008.01-.062.068-.125.14-.185.218l-.03.04c-.082.104-.16.214-.224.327l-.022.042-.046.083c-.005.014-.012.028-.02.043-.013.027-.024.055-.035.084-.03.07-.05.14-.064.21-.12.604.108 1.51 1.2 1.506l.09-.003.084-.005c.723-.063 1.78-.488 3.284-1.553l1.22-.84c.023-.014.062-.023.096-.022.046 0 .085.014.08.04 0 .005-.002.01-.003.013-1.024 1.692-1.39 2.61-1.54 3.196-.006.02-.01.043-.017.063-.014.062-.027.12-.037.175-.005.018-.008.036-.01.054l-.01.05c0 .01-.003.02-.004.027l-.007.05-.014.094-.005.044c0 .016-.003.03-.004.044-.004.03-.008.057-.01.085 0 .014-.003.027-.005.04 0 .013-.003.028-.004.04l-.005.04-.007.058c0 .008-.003.015-.004.022-.04.23-.112.45-.34.788-.54.794-1.163 1.377-1.746 1.803l-.085.063c-.093.065-.182.126-.27.183-.033.02-.062.04-.093.057-.03.02-.06.04-.092.057-.02.01-.037.023-.055.033l-.084.05c-.024.013-.048.028-.073.04-.014.01-.028.016-.043.024-.044.025-.087.05-.13.07-.015.01-.03.015-.043.023-.127.066-.246.122-.357.17l-.036.018-.05.022c-.02.007-.038.014-.056.023-.396-.552-.872-1.043-1.41-1.46-.152-.115-.308-.225-.468-.33l-.08-.05c-.087-.055-.174-.107-.265-.158-.033-.02-.068-.038-.1-.058-.152-.082-.306-.16-.462-.23l-.087-.04c-.113-.05-.228-.096-.343-.14-.166-.063-.335-.12-.506-.17-.058-.016-.115-.032-.173-.05l-.125-.03c-.138-.034-.277-.064-.417-.09-.08-.014-.16-.028-.24-.04-.344-.052-.7-.078-1.06-.078-1.294 0-2.506.344-3.546.944-.273.157-.575.232-.877.228h-.065l-.062-.005c-.034-.002-.068-.007-.1-.01l-.118-.022c-.012 0-.025-.004-.04-.007-.01-.003-.024-.008-.038-.01l-.054-.016c-.03-.01-.06-.018-.092-.03-.056-.02-.11-.043-.164-.07l-.025-.01-.093-.05-.047-.03c-.023-.013-.046-.028-.068-.043l-.018-.014c-.033-.023-.066-.047-.096-.073-.114-.09-.22-.183-.327-.27l-.01-.01c-.05-.04-.098-.08-.145-.12l-.255-.212c-.014-.013-.027-.023-.042-.034l-.013-.01-.044-.036c-.003-.004-.007-.007-.012-.01l-.1-.08-.154-.117c-.012-.01-.025-.018-.037-.026-.006-.005-.012-.01-.02-.014-.01-.01-.022-.016-.034-.025-.29-.206-.568-.36-.862-.436l-.007-.002c-.213-.054-.43-.067-.668-.032-.012 0-.023.003-.035.006-.335.055-.71.205-1.152.472l.018-.013c.002 0 .004-.004.006-.005v-.002c.004 0 .004 0 .005-.002l.006-.005.018-.016c.005-.005.01-.01.016-.013.02-.02.04-.045.063-.077 0-.003 0-.006.004-.008.014-.02.03-.046.044-.074l.012-.02.015-.032.028-.066c.002-.005.003-.01.005-.012l.02-.056c0-.006.003-.013.005-.02.006-.02.01-.04.018-.063.02-.08.036-.17.047-.276v-.007l.007-.106v-.002l.002-.077v-.042c0-.042 0-.085-.003-.13l-.002-.046c-.003-.077-.01-.16-.022-.247-.25-1.973 1.406-2.494 3.844-1.607.064.023.128.04.2.066.144.05.55.196 1.086.216.382.01 1.555-.18 1.117-.313-6.044-1.82-4.982-4.85-3.73-8.127.96-2.52.57-3.082.392-3.575-4.653 2.04-8.078 6.303-8.882 11.42-.097.69-.15 1.395-.16 2.11-.08 6.096 3.545 11.397 8.8 13.838 1.96.9 4.145 1.402 6.45 1.402 8.434 0 15.272-6.73 15.272-15.032 0-5.062-2.543-9.538-6.437-12.262"/><path d="M24.245 18.312c-1.766 3.795 1.83 4.266 1.832 4.266-1.52-.7-1.306-2.127-1.306-2.127.058-.46.197-.908.4-1.328 1.7-3.492 2.166-6.173 1.352-7.978-.31-.683-1-1.125-1.76-1.125h-.01c-.87 0-1.722.07-2.55.208 3.616 1.455 3.563 4.82 2.043 8.084"/><path d="M24.692 41.25c-9.068 0-16.42-7.236-16.42-16.163 0-8.928 7.352-16.165 16.42-16.165 9.07 0 16.42 7.237 16.42 16.165 0 8.927-7.35 16.164-16.42 16.164m0-40.47C11.055.78 0 11.663 0 25.088 0 38.51 11.055 49.393 24.692 49.393S49.384 38.51 49.384 25.087C49.384 11.662 38.33.78 24.692.78"/></g></svg>