<?xml version="1.0" encoding="utf-8"?>
<!-- Generator: Adobe Illustrator 16.0.0, SVG Export Plug-In . SVG Version: 6.00 Build 0)  -->
<!DOCTYPE svg PUBLIC "-//W3C//DTD SVG 1.1//EN" "http://www.w3.org/Graphics/SVG/1.1/DTD/svg11.dtd">
<svg version="1.1" id="Capa_1" xmlns="http://www.w3.org/2000/svg" xmlns:xlink="http://www.w3.org/1999/xlink" x="0px" y="0px"
	 width="500px" height="500px" viewBox="0 0 500 500" enable-background="new 0 0 500 500" xml:space="preserve">
<path fill="#FFFFFF" d="M308.936,342.688c0.459-2.779,0.932-6.528,1.151-9.357v-0.021c-0.323,2.018-0.565,4.062-0.866,6.104
	c0.062-1.771,0.062-10.887,0.062-10.909c-0.361-3.466-1.214-3.653-1.574-3.749c-1.529,1.182-1.631,10.518,0.521,11.635
	c-1.217,3.229-1.217,3.229-1.702,5.41c-0.236-1.938-0.283-2.017-1.339-3.195c2.739-4.925,0.835-11.354-1.166-11.14
	c-1.907,0.222-2.342,4.15-2.584,6.49c-0.457-1.371-1.528-4.538-3.853-3.71c-3.096,1.678-5.128,8.711-0.401,11.832
	c-1.688,2.182-1.688,2.182-2.985,4.74c-1.173-1.991-1.173-1.991-3.244-2.938c5.806-4.727,2.858-10.917-0.229-11.265
	c-4.097-0.487-6.963,6.223-4.27,9.909c0.93,1.291,2.173,1.562,3.109,1.787c-2.605,1.554-3.631,2.922-4.631,6.112
	c-2.291-7.647-8.545-2.717-9.821-0.591c-2.521,4.159,0.337,8.443,4.757,7.168c3.197-0.913,4.355-3.852,4.962-5.402
	c0.284,2.504,0.883,3.418,2.743,4.174c-2.001,1.276-2.939,2.285-4.225,4.482c-1.938-5.615-8.224-1.631-9.769,0.906
	c-2.235,3.607-0.062,6.852,3.946,5.875c2.561-0.645,4.119-2.631,5.145-3.985c0.166,1.64,0.567,2.269,1.78,2.812
	c-2.159,1.68-2.159,1.68-4.063,3.681c-1.826-5.167-8.332-0.409-9.557,1.772c-1.584,2.826,0.299,4.892,3.602,3.953
	c2.584-0.765,4.176-2.527,4.931-3.401c-0.156,1.551,0.144,2.094,1.356,2.448c-5.736,3.041-6.729,6.189-5.343,6.539l0.4,0.047
	c-1.535,0.692-5.443,2.479-6.562,4.271c-0.087,0.125,0,0.29,0.183,0.33c1.836,0.11,6.808-2.662,7.899-4.207
	c0.062-0.11,0.079-0.213,0.031-0.321c-0.062-0.148-0.172-0.246-0.313-0.283l-0.125-0.041c1.678-0.686,2.853-1.416,4.789-2.969
	c-0.381,0.582-0.521,0.812-0.601,1.03c-0.108,0.245-0.062,0.521,0.097,0.741c-1.914,1.119-5.775,3.402-7.138,4.693
	c-0.079,0.08-0.019,0.196,0.086,0.183c2.687-0.418,6.089-3.097,12.644-8.231c-1.858,2.127-2.582,2.898-9.074,6.729
	c0.707-0.395,1.639-0.857,2.349-1.262c1.638-1.021,3.826-2.379,5.419-3.487l0.079-0.05c0.835-0.646,3.049-2.34,5.215-4.275
	c-0.583,0.566-0.678,0.646-1.206,1.145c3.915-3.576,4.23-3.867,6.295-6.215c3.701-4.548,3.938-4.848,5.861-7.888l0.943-1.591
	l0.111-0.197c0.543-0.99,2.903-5.876,2.903-5.884c-0.134,0.339-0.321,0.795-0.479,1.144l0.922-2.15
	c0.678-1.898,1.565-4.467,2.135-6.372l-0.033,0.063c-0.496,1.777-1.021,3.29-1.496,4.551c0.024-0.045,1.614-5.767,2.206-8.681
	c-0.158,1.229-0.205,1.593-0.433,3.112c0.117-0.641,0.32-1.451,0.445-2.059 M303.562,339.686c-0.92,1.654-0.92,1.654-2.142,4.522
	c-0.372-1.718-0.979-2.466-2.207-2.711c1.458-1.606,2.119-3.222,2.349-5.75c0.551,2.315,1.127,3.3,2.144,3.67
	c-0.04,0.095-0.095,0.198-0.158,0.276 M306.368,348.288c-0.724,1.26-1.308,2.45-1.812,3.544c-0.031-0.78-0.117-1.426-0.283-2.223
	c0.867-1.637,1.008-1.928,1.738-4.109c-0.021,1.512,0.049,2.361,0.465,2.574l-0.123,0.197 M294.836,353.928
	c-0.953,1.104-0.953,1.104-2.426,3.088c-0.678-1.166-0.678-1.166-1.938-1.931c1.479-1.11,2.387-2.245,3.108-3.938
	c0.545,0.953,0.944,1.728,1.396,2.664C294.932,353.816,294.852,353.88,294.836,353.928 M301.516,351.367
	c-0.826,1.283-1.488,2.229-1.779,2.639c-0.252-0.566-0.504-1.023-0.852-1.654c0.727-1.181,1.293-2.143,1.938-3.354
	c0.331,0.804,0.544,1.436,0.788,2.184L301.516,351.367 M302.162,359.032c-0.93,1.448-1.717,2.479-2.049,2.905
	c0.188-0.605,0.316-1.127,0.427-1.748c0.724-1.047,1.308-1.914,1.969-2.985c-0.03,0.59-0.086,1.056-0.229,1.631L302.162,359
	 M291.268,364.341c-1.068,1.175-1.929,2.017-2.301,2.363c-0.32-0.513-0.621-0.993-1.07-1.562c0.994-0.904,1.807-1.678,2.83-2.66
	c0.268,0.612,0.465,1.108,0.676,1.717l-0.141,0.174 M297.467,361.977c-0.803,0.973-1.425,1.703-1.701,2.002
	c0-0.438-0.048-0.812-0.086-1.244c0.614-0.725,1.111-1.322,1.728-2.079c0.075,0.457,0.125,0.805,0.155,1.214L297.467,361.977
	 M296.27,368.059c-0.156,0.184-1.69,1.844-3.496,3.655c0.979-1.08,1.457-1.748,1.488-2.08c1.096-1.108,1.963-2.04,2.953-3.229
	c-0.393,0.678-0.803,1.321-0.771,1.466l-0.18,0.173 M286.543,373.055c-1.277,0.881-2.38,1.896-3.311,2.771
	c0.584-1.166,0.496-1.733-0.291-1.93c1.293-0.916,2.302-1.664,3.481-2.584c0.165,0.605,0.269,1.078,0.331,1.613L286.543,373.055
	 M292.096,370.832c-1.322,1.26-2.395,2.174-2.845,2.566c0.513-0.912,0.513-0.943,0.497-1.575c1.009-0.851,1.796-1.56,2.711-2.425
	c-0.018,0.449-0.08,0.811-0.16,1.228C292.236,370.723,292.159,370.784,292.096,370.832"/>
<path fill="#FFFFFF" d="M275.198,378.614c-0.904,1.062-3.183,2.805-5.806,3.276h-0.039c-2.75,0.282-2.953-1.537-1.309-3.354
	c0.348-0.411,2.264-2.349,5.403-2.907h0.016c3.205-0.339,2.933,1.584,1.741,2.984 M272.059,363.82
	c-1.515,4.315-8.344,5.806-10.164,2.205c-1.182-2.349,0.709-6.396,5.625-6.993C270.859,358.795,273.025,361.08,272.059,363.82
	 M284.825,340.023c-0.103,1.742-1.206,4.925-4.767,5.681h-0.047c-5.058,0.456-6.869-5.271-3.947-8.854
	c1.332-1.67,2.877-1.971,3.521-2.096h0.017C283.635,334.393,284.95,337.795,284.825,340.023 M299.454,323.868
	c0.786,4.032-1.481,7.185-4.052,5.562c-2.928-1.843-3.805-8.76-0.535-10.23C297.287,318.575,299.003,321.545,299.454,323.868"/>
<path fill="#FFFFFF" d="M269.796,372.598c-1.653,3.574-7.979,4.979-9.414,2.069c-1.08-2.181,1.568-5.585,5.647-5.946
	C269.52,368.578,270.693,370.643,269.796,372.598 M304.367,321.049c0.388,1.561,0.726,4.86-0.881,6.018v0.018
	c-2.812,1.206-4.846-6.167-3.797-9.152c0.272-0.785,0.645-1.048,0.851-1.183C302.271,316.023,303.814,318.827,304.367,321.049
	 M269.646,384.223c-1.119,0.836-3.197,1.853-5.151,2.189h-0.047c-2.158,0.244-1.214-1.049-1.011-1.292
	c0.772-0.929,3.059-2.497,5.688-2.945h0.018c2.439-0.284,1.639,0.913,1.447,1.165C270.434,383.545,270.158,383.846,269.646,384.223
	 M310.126,331.65c-0.016,1.103-0.079,1.213-0.118,1.293c-0.457-0.402-1.072-9.092-0.875-10.823c0-0.047,0.04-0.144,0.059-0.188
	l0.075,0.017c0.063,0.174,0.15,0.378,0.302,1.37C309.802,325.822,310.094,329.146,310.126,331.65 M269.678,386.271l-2.852,0.943
	c2.378-0.804,4.648-1.857,7.01-2.71c0.206-0.095,0.245-0.095,0.324-0.116c-0.018,0.049-0.025,0.103-0.924,0.495
	C272.182,385.311,270.771,385.893,269.678,386.271 M292.426,326.139c0.678,4.299-2.765,7.323-5.836,5.135
	c-3.191-2.252-3.301-8.633,0.732-9.813v-0.017h0.015C290.26,320.984,292.08,323.915,292.426,326.139 M273.38,353.203
	c-0.269,1.496-1.828,4.441-5.782,4.923h-0.016c-5.264,0.165-6.624-5.097-3.339-8.312c1.534-1.514,3.198-1.74,3.905-1.826h0.062
	C272.009,347.861,273.836,350.604,273.38,353.203 M307.141,318.143c0.427,1.535,1.057,4.758,0.184,5.963
	c-1.566,1.291-3.727-5.797-3.442-8.76c0.056-0.771,0.251-1.039,0.378-1.197C305.221,313.346,306.542,315.992,307.141,318.143"/>
<path fill="#FFFFFF" d="M266.559,379.843c-1.908,2.853-7.508,3.845-8.199,1.449c-0.434-1.496,1.668-3.994,5.457-4.442
	C266.843,376.756,267.582,378.275,266.559,379.843 M267.457,386.964c-0.807,0.283-1.514,0.488-1.893,0.614
	c-0.992,0.268-2.33,0.598-3.322,0.835c0.029-0.022,5.062-2.144,7.111-2.646c0.401-0.08,0.545-0.097,0.646-0.05
	C269.977,386.01,268.4,386.633,267.457,386.964 M273.475,341.527c-0.127,1.546-1.371,4.681-5.229,5.162v0.021h-0.062
	c-5.506,0.078-6.555-5.759-3.742-8.712c1.348-1.409,2.908-1.615,3.631-1.691h0.049c3.984-0.104,5.529,2.983,5.357,5.204
	 M283.352,328.17c0.396,4.395-4.119,7.01-7.42,4.316c-3.104-2.521-2.427-8.239,2.049-9.153h0.018
	C281.541,323.049,283.17,326.161,283.352,328.17 M307.708,315.18c0.434,1.426,1.26,4.451,1.182,5.648v0.016
	c-0.047,0.157-0.103,0.37-0.378-0.062c-0.944-1.468-2.828-8.099-2.662-9.357c0.03-0.126,0.078-0.354,0.362,0.056
	C306.511,311.927,307.062,313.109,307.708,315.18"/>
<path fill="#FFFFFF" d="M262.635,385.215c-1.953,1.796-6.64,2.694-6.51,0.835c0.078-0.969,1.854-2.536,4.84-2.852
	c2.553-0.126,2.615,0.993,1.86,1.812C262.777,385.073,262.698,385.169,262.635,385.215 M263.234,387.909
	c-1.371,0.495-3.185,0.922-4.351,1.126c-0.425,0.056-0.543,0.056-0.63,0c-0.047-0.348,3.544-1.914,5.624-2.213
	c0.979-0.127,1.039,0.062,0.89,0.244C264.645,387.279,264.068,387.578,263.234,387.909 M295.364,312.777
	c1.331,3.402-0.022,6.176-2.529,5.113c-3.274-1.396-4.992-7.98-2.332-9.066C292.552,308.303,294.584,310.809,295.364,312.777
	 M260.178,364.561c-0.3,1.277-1.773,3.498-5.285,3.711h-0.021c-4.836-0.103-6.105-4.474-3.088-6.955
	c1.452-1.195,3.024-1.308,3.711-1.338C258.604,359.906,260.793,362.057,260.178,364.561 M300.012,310.422
	c0.662,1.457,1.402,4.137,0.049,5.098c-2.578,1.047-5.946-6.16-4.853-8.429c0.124-0.284,0.29-0.401,0.424-0.504
	C297.167,305.986,299.123,308.471,300.012,310.422 M258.854,373.493c-1.182,3.223-7.053,4.073-8.714,1.246
	c-1.125-1.907,0.324-4.892,4.63-5.16C257.672,369.54,259.627,371.415,258.854,373.493 M260.927,354.102
	c-0.646,4.127-6.569,5.807-9.296,2.646c-2.178-2.521-0.854-7.396,4.278-7.742h0.045
	C259.927,349.123,261.249,352.053,260.927,354.102 M288.891,315.229c0.991,3.535-1.427,5.994-4.311,4.402
	c-3.45-1.923-4.064-7.82-0.913-8.807C285.668,310.398,288.109,312.438,288.891,315.229 M257.102,380.521
	c-1.177,2.707-6.694,3.229-7.681,0.725c-0.669-1.75,1.517-3.576,4.356-3.633C256.578,377.639,257.695,379.148,257.102,380.521
	 M302.627,307.712c0.67,1.292,1.732,4.011,1.032,5.026c-1.497,1.142-5.119-5.752-4.836-8.026c0.03-0.269,0.124-0.401,0.188-0.504
	C299.814,303.594,301.516,305.562,302.627,307.712 M272.411,329.697c0.03,1.465-0.875,4.363-4.437,4.805h-0.031v0.018h-0.03
	c-5.215,0.108-6.365-5.75-3.687-8.396c1.103-1.071,2.282-1.213,2.856-1.291h0.058C270.727,324.751,272.387,327.643,272.411,329.697
	 M306.967,312.793l0.766,2.316 M258.13,388.604c-1.401,0.646-4.95,1.291-4.646,0.56c0.262-0.56,2.314-1.449,4.084-1.601
	c1.566-0.094,1.476,0.396,1.207,0.646C258.643,388.326,258.43,388.46,258.13,388.604 M260.965,342.363
	c-0.369,4.302-6.115,6.16-8.889,2.867c-2.423-2.858-0.762-7.617,3.871-7.947v-0.016h0.016
	C259.484,337.346,261.169,339.969,260.965,342.363 M280.462,316.874c0.29,1.45,0.031,4.097-2.829,4.694h-0.031
	c-4.436,0.377-6.709-5.293-4.27-7.987c0.727-0.788,1.449-0.931,1.924-1.022h0.014l0.018-0.017h0.016
	C278.2,312.32,280.061,314.951,280.462,316.874 M254.932,385.782c-0.347,0.504-1.508,1.403-3.549,1.497h-0.052
	c-2.627-0.032-2.981-1.489-1.933-2.459c0.401-0.361,1.323-0.961,3.131-1.07c1.988-0.029,3.166,0.945,2.418,2.018 M303.201,304.932
	c1.41,2.506,2.271,5.012,1.72,4.947c-0.774-0.094-4.507-6.547-4.444-8.16C300.723,301.136,302.076,302.898,303.201,304.932
	 M255.533,389.596c0.777-0.104,1.552-0.222,2.328-0.332l0.402-0.047C257.438,389.326,256.35,389.516,255.533,389.596
	 M293.67,300.583c0.938,1.324,1.962,3.537,0.938,4.333c-2.229,0.852-6.528-5.568-5.693-7.136c0.029-0.064,0.079-0.175,0.261-0.253
	C290.283,297.087,292.379,298.771,293.67,300.583 M289.561,302.805c1.614,2.655,1.047,4.885-1.071,4.286
	c-2.938-0.836-5.828-6.396-3.938-7.547c0.057-0.017,0.145-0.047,0.188-0.079h0.018C286.439,299.055,288.582,301.182,289.561,302.805
	 M247.859,373.637c-0.567,2.898-5.711,3.467-7.744,0.853c-1.552-2.003-0.115-4.616,3.523-4.647
	C246.267,369.934,248.235,371.714,247.859,373.637 M248.137,364.625c-0.424,3.497-5.852,4.506-8.274,1.535
	c-1.969-2.37-0.484-5.773,3.664-5.854h0.045C247.244,360.576,248.334,363.081,248.137,364.625 M270.363,318.291
	c0.078,1.292-0.545,3.859-3.553,4.254c-4.634,0.109-5.975-5.167-3.733-7.546c0.866-0.931,1.883-1.071,2.37-1.142
	c3.158-0.058,4.781,2.552,4.923,4.449 M260.382,330.501c-0.063,1.474-1.071,4.033-4.435,4.284h-0.016
	c-4.761-0.157-6.118-5.34-3.094-7.973c0.564-0.494,1.536-1.086,2.887-1.133c3.365,0.109,4.752,2.883,4.674,4.819 M283.816,304.751
	c1.313,2.827-0.088,5.001-2.562,4.011c-3.19-1.277-5.024-6.539-2.614-7.5c0.077-0.048,0.156-0.048,0.235-0.08h0.017
	C280.989,300.883,283.084,303.137,283.816,304.751 M248.292,354.32c-0.162,1.324-1.372,3.576-4.72,3.623h-0.054
	c-4.757-0.408-5.971-5.371-2.879-7.654c1.226-0.923,2.433-0.946,3.016-0.979h0.017v0.03
	C247.283,349.609,248.551,352.407,248.292,354.32 M247.535,380.678c-0.453,2.363-5.041,2.694-6.728,0.488
	c-1.153-1.496,0.041-3.324,3.049-3.355h0.032C246.735,378.007,247.735,379.605,247.535,380.678 M296.042,298.27
	c0.991,1.229,2.26,3.369,1.757,4.158c-1.387,0.952-6.05-5.176-5.82-6.734c0-0.078,0.069-0.166,0.104-0.243
	c0.678-0.48,2.583,1.087,3.953,2.819 M251.663,389.973l-0.481,0.017c0.828-0.048,1.65-0.195,2.481-0.261
	c0.214-0.016,0.567-0.03,0.631,0c-0.04,0.023-0.048,0.023-0.241,0.049C253.339,389.839,252.393,389.926,251.663,389.973
	 M252.494,389.02c-0.37,0.276-1.29,0.605-2.66,0.646c-1.694,0.023-1.736-0.544-1.354-0.906c0.157-0.156,0.835-0.693,2.547-0.764
	c1.75,0,1.967,0.559,1.578,0.922L252.494,389.02 M248.366,342.624c-0.186,1.409-1.371,3.788-4.664,3.858h-0.031
	c-4.664-0.426-5.742-5.633-2.639-7.979c1.169-0.882,2.316-0.882,2.879-0.896h0.023C247.066,337.874,248.672,340.426,248.366,342.624
	 M276.38,306.271c0.402,1.174,0.545,3.506-1.817,4.018h-0.023c-4.033,0.331-5.962-5.059-4.189-6.994
	c0.435-0.488,0.951-0.6,1.252-0.663h0.018c2.348-0.188,4.215,2.063,4.766,3.624 M296.616,295.826
	c0.971,1.127,2.418,3.104,2.418,3.898v0.017c-0.339,0.913-4.607-4.112-5.451-5.837c-0.181-0.34-0.181-0.457-0.181-0.584
	C293.592,292.85,295.199,294.221,296.616,295.826 M247.149,385.877c-0.357,1.607-4.195,1.686-5.38,0.133
	c-0.669-0.854-0.067-2.103,2.418-2.087h0.016C246.519,384.049,247.314,385.152,247.149,385.877 M259.279,319.016
	c-0.062,3.42-4.229,4.995-6.648,2.521c-2.232-2.253-1.169-6.602,2.485-6.885h0.041c2.901,0.134,4.153,2.631,4.112,4.348
	 M248.776,390.083l-1.13,0.022c0.59-0.03,1.169-0.148,1.759-0.164c0.671,0,0.809,0.047,0.856,0.069
	c-0.041,0.03-0.041,0.03-0.123,0.03L248.776,390.083 M248.283,330.753c-0.465,3.476-4.82,4.867-7.177,2.284
	c-2.259-2.441-0.727-7.01,3.167-6.932c3.147,0.221,4.239,2.856,4.01,4.631 M267.434,307.531c0.582,3.197-2.592,4.537-4.924,2.883
	c-2.742-1.938-2.314-6.238,0.645-6.664C265.046,303.632,267.047,305.381,267.434,307.531 M236.05,364.246
	c-0.019,0.275-0.26,2.804-3.631,2.662h-0.032c-4.084-0.487-5.509-4.521-3.068-6.238c0.969-0.677,2.045-0.646,2.501-0.63
	C234.241,360.26,236.177,362.184,236.05,364.246 M282.217,293.777c0.893,1.039,1.86,2.828,0.773,3.34h-0.016
	c-2.363,0.545-6.531-4.678-5.578-5.82c0.055-0.08,0.158-0.148,0.234-0.181h0.018C278.895,290.816,281.1,292.471,282.217,293.777
	 M236.806,373.131c0,0.852-0.686,2.301-3.146,2.191h-0.016c-3.688-0.475-5.274-3.861-3.194-5.231
	c0.838-0.534,1.831-0.495,2.261-0.495h0.016C235.735,369.989,236.821,371.975,236.806,373.131 M285.581,291.927
	c1.914,1.854,2.262,3.388,1.293,3.411c-1.772,0.047-6.562-4.695-5.751-5.688c0.021-0.047,0.062-0.062,0.094-0.078
	C282.124,289.216,284.328,290.723,285.581,291.927 M246.811,389.091c-0.284,0.804-3.392,0.661-3.892-0.188
	c-0.208-0.348,0.188-0.836,1.729-0.836h0.016C246.274,388.146,246.952,388.729,246.811,389.091 M277.365,295.322
	c1.48,2.158,0.765,3.606-0.874,3.269c-2.718-0.567-5.208-5.002-3.866-5.971c0.076-0.062,0.234-0.118,0.312-0.149h0.03
	C274.506,292.297,276.498,294.062,277.365,295.322 M235.675,353.771c-0.322,3.166-4.516,4.188-6.911,1.717
	c-2.325-2.42-1.086-6.452,2.8-6.334h0.023C234.667,349.579,235.83,352.123,235.675,353.771 M237.936,380.275
	c0.163,1.771-2.906,2.435-5.209,0.561c-1.754-1.387-1.356-3.12,0.724-3.277c0.291-0.016,0.54,0,0.724,0.018
	C236.598,377.857,237.846,379.323,237.936,380.275 M287.622,290.044c1.953,1.687,2.678,3.104,1.961,3.198
	c-1.291,0.174-6.608-4.537-6.034-5.355c0.514-0.348,2.561,0.866,4.064,2.157 M271.205,296.564c0.488,0.932,0.913,2.821-0.842,3.215
	c-3.191,0.229-5.286-4.387-3.971-5.766c0.196-0.188,0.448-0.322,0.756-0.361C268.843,293.525,270.561,295.273,271.205,296.564
	 M235.692,341.984c-0.387,3.389-4.519,4.586-6.798,1.955c-2.178-2.475-0.753-6.656,3.065-6.539
	C234.667,337.779,235.896,340.041,235.692,341.984 M239.322,385.562c0.041,0.174,0.162,1.127-1.677,1.041h-0.016
	c-2.395-0.271-4.01-1.877-3.115-2.634c0.484-0.378,1.252-0.347,1.583-0.321h0.022C238.073,383.876,239.169,384.9,239.322,385.562
	 M288.473,287.886c1.26,0.993,2.615,2.341,2.646,2.867c-0.211,0.427-1.938-0.843-2.661-1.418c-1.631-1.196-3.388-2.796-3.497-3.261
	c-0.025-0.03-0.025-0.062-0.025-0.096C285.156,285.665,286.977,286.721,288.473,287.886 M257.734,308.036
	c0.166,2.788-2.853,4.331-4.981,2.551c-2.153-1.803-1.571-5.892,1.517-6.144C256.486,304.555,257.657,306.648,257.734,308.036
	 M248.137,319c-0.278,3.159-4.151,4.514-6.19,2.167c-1.898-2.167-0.583-6.099,2.82-6.2C247.314,315.195,248.267,317.473,248.137,319
	 M246.043,390.083c-0.509,0-1.186-0.015-1.694-0.031l-0.023-0.03c0,0,0.102-0.062,0.94-0.049c0.198,0,0.198,0,1.293,0.135
	L246.043,390.083 M263.85,297.512c0.646,2.135-0.979,3.594-2.906,2.693c-2.48-1.182-2.829-4.883-1.023-5.553
	c0.117-0.047,0.309-0.078,0.434-0.096c1.679,0,3.097,1.726,3.481,2.971 M236.137,330.139c-0.507,3.127-4.34,4.215-6.309,1.844
	c-1.835-2.254-0.305-6.224,3.146-6.129C235.582,326.216,236.404,328.596,236.137,330.139 M241.08,388.854
	c0.137,0.188,0.197,0.504-0.886,0.441h-0.017c-1.655-0.166-3.171-0.891-2.694-1.3c0.217-0.205,0.809-0.175,1.048-0.175v0.022
	c1.437,0.128,2.323,0.679,2.54,0.993 M224.467,363.175c0,0.236-0.083,2.418-2.808,2.144h-0.04c-3.47-0.678-4.747-4.536-2.584-5.75
	c0.662-0.379,1.324-0.322,1.71-0.269C222.683,359.561,224.455,361.41,224.467,363.175 M273.427,286.027
	c0.953,0.74,2.097,2.017,1.402,2.395h-0.017c-1.693,0.417-5.767-3.561-5.481-4.191c0-0.016,0.03-0.062,0.127-0.107
	C270.182,283.971,272.175,285.003,273.427,286.027 M226.2,372.141c0.208,1.852-2.146,2.614-4.462,0.812
	c-2.001-1.567-2.096-3.819-0.163-4.072c0.34-0.047,0.646-0.016,0.892,0C224.83,369.334,226.079,371.066,226.2,372.141
	 M276.113,284.768c1.615,1.078,2.434,2.149,1.771,2.283c-1.126,0.205-6.317-3.275-5.892-3.984c0-0.017,0.031-0.049,0.031-0.049
	h0.017c0.565-0.181,2.616,0.758,4.071,1.733 M269.865,287.24c1.402,1.449,1.309,2.458,0.293,2.363
	c-1.93-0.158-4.956-3.688-4.246-4.356c0.047-0.062,0.134-0.095,0.182-0.118c0.826-0.156,2.701,1.008,3.771,2.096 M223.537,352.604
	c-0.083,1.057-0.822,2.742-3.147,2.562c-3.603-0.679-4.533-5.022-2.118-6.412c0.748-0.448,1.41-0.378,1.856-0.321
	c2.515,0.486,3.508,2.74,3.409,4.19 M277.602,283.285c1.34,0.771,2.602,1.781,2.428,2.145v0.016
	c-0.805,0.505-6.285-3.057-6.285-3.536c0.016,0,0.029-0.023,0.029-0.058C274.135,281.632,276.09,282.42,277.602,283.285
	 M228.662,379.402c0.046,0.156,0.465,1.574-1.536,1.402h-0.031c-2.727-0.498-4.597-3.011-3.31-3.774
	c0.229-0.109,0.646-0.243,1.332-0.165C227.216,377.236,228.395,378.614,228.662,379.402 M247.913,308.114
	c-0.21,2.583-3.042,3.812-4.734,2.062c-1.671-1.717-0.669-5.275,2.111-5.38h0.036C247.404,304.963,248.012,306.869,247.913,308.114
	 M223.521,340.884c-0.421,2.851-3.776,3.654-5.524,1.323c-1.695-2.254-0.5-5.751,2.615-5.49h0.039
	C222.974,337.212,223.73,339.466,223.521,340.884 M236.913,318.607c-0.591,2.74-3.953,3.686-5.454,1.52
	c-1.372-1.984,0.122-5.38,2.985-5.285C236.152,314.982,237.314,316.747,236.913,318.607 M255.842,298.047
	c0.083,0.835-0.24,2.441-1.984,2.584h-0.029c-2.688-0.158-3.229-3.632-1.773-4.979c0.441-0.418,0.854-0.457,1.127-0.487
	C254.454,295.146,255.68,296.488,255.842,298.047 M265.218,288.154c1.104,1.56,0.562,2.527-0.646,2.269
	c-2.016-0.481-3.859-3.75-2.867-4.333c0.062-0.029,0.174-0.062,0.245-0.079c0.817-0.118,2.379,0.914,3.268,2.159 M231.82,384.9
	c0.43,0.756-0.287,1.039-1.611,0.646c-1.854-0.552-3.347-1.985-2.54-2.435c0.271-0.157,0.669-0.104,0.926-0.078
	C229.803,383.198,231.379,384.129,231.82,384.9 M278.312,281.805c1.244,0.646,2.613,1.514,2.689,1.906v0.018
	c-0.115,0.156-0.889-0.11-2.456-0.892c-1.182-0.591-3.481-1.836-3.653-2.183c0,0,0-0.031-0.017-0.055v-0.018
	C275.042,280.387,276.734,281.001,278.312,281.805 M240.978,389.792c-0.083,0-0.099,0-0.123-0.017c0,0,0.083-0.023,0.484,0
	c0.532,0.048,1.048,0.134,1.596,0.182C242.339,389.909,241.564,389.861,240.978,389.792 M259.673,288.854
	c0.323,0.75,0.427,1.932-0.687,2.119c-2.094,0-3.291-3.197-2.369-4.072c0.162-0.148,0.322-0.164,0.482-0.195
	C258.162,286.704,259.279,287.957,259.673,288.854 M224.4,328.988c-0.563,2.615-3.663,3.402-5.112,1.291
	c-1.478-2.174,0.322-5.379,2.848-5.057C224.174,325.625,224.699,327.664,224.4,328.988 M235.53,388.326
	c0.176,0.117,0.462,0.322,0.244,0.387c-0.708,0.188-3.776-0.943-3.524-1.314c0.095-0.118,0.484-0.078,0.646-0.057
	C234.104,387.547,235.215,388.114,235.53,388.326 M247.735,298.188c-0.268,1.938-2.339,2.768-3.447,1.403
	c-1.086-1.331-0.255-4.063,1.678-4.128C247.082,295.511,247.936,296.803,247.735,298.188 M238.054,307.878
	c-0.669,2.261-3.343,2.923-4.336,1.087c-0.874-1.63,0.481-4.309,2.635-4.253C237.725,304.82,238.516,306.286,238.054,307.878
	 M216.302,370.541c0.055,0.165,0.446,1.708-1.37,1.408h-0.024c-2.383-0.629-3.97-3.371-2.791-4.127
	c0.346-0.221,0.79-0.174,1.047-0.11h0.016C214.892,368.152,216.035,369.643,216.302,370.541 M213.64,361.466
	c0.146,1.772-1.645,2.276-3.289,0.923c-1.854-1.514-2.06-4.082-0.338-4.277c0.24-0.04,0.481,0,0.686,0.039h0.031v0.017
	C212.607,358.652,213.553,360.387,213.64,361.466 M263.73,280.04c1.369,0.726,1.903,1.292,1.612,1.388
	c-0.581,0.221-4.97-2.111-4.884-2.584l0.032-0.023c0.393-0.088,2.116,0.606,3.235,1.205 M265.376,279.221
	c1.481,0.631,2.237,1.185,2.033,1.31c-0.38,0.221-5.325-1.875-5.482-2.315c0.023,0,0.023-0.021,0.032-0.021
	C262.266,278.111,263.998,278.622,265.376,279.221 M212.253,350.666c0.016,2.166-2.115,2.875-3.725,1.275
	c-1.777-1.787-1.356-4.693,0.669-4.772c0.134,0,0.323,0.031,0.449,0.047c1.348,0.316,2.6,1.938,2.606,3.466 M261.469,280.732
	c0.852,0.6,1.514,1.276,1.09,1.435c-1.145,0.127-4.334-2.521-4.033-2.74c0-0.03,0.015-0.03,0.029-0.03
	C259.044,279.361,260.539,280.088,261.469,280.732 M220.111,378.143c0.37,0.756,0.023,1.322-1.213,0.891
	c-1.934-0.686-3.667-2.766-2.659-3.19c0.257-0.094,0.58-0.047,0.773,0C218.141,376.077,219.627,377.164,220.111,378.143
	 M266.393,278.354c1.157,0.41,2.34,0.961,2.275,1.158c-0.408,0.166-5.702-1.726-5.678-2.017
	C263.234,277.417,264.96,277.852,266.393,278.354 M253.68,289.178c0.113,0.6,0.016,1.771-1.104,1.875h-0.024
	c-1.735-0.126-2.161-2.805-1.213-3.64c0.206-0.204,0.406-0.236,0.554-0.252h0.015C252.893,287.209,253.553,288.406,253.68,289.178
	 M226.161,317.52c-0.268,0.853-1.171,2.224-2.879,2.127h-0.036c-2.5-0.504-2.232-3.866-0.139-5.058
	c0.486-0.269,0.969-0.362,1.471-0.298c1.692,0.346,1.96,2.094,1.615,3.229 M212.19,339.087c-0.322,2.063-2.446,2.741-3.76,1.183
	c-1.694-2.002-0.417-4.899,1.532-4.742l0.211,0.018c1.347,0.33,2.273,1.938,2.017,3.561 M258.538,281.285
	c0.844,0.771,1.058,1.465,0.489,1.449c-1.07-0.018-3.258-2.396-2.902-2.756l0.113-0.059
	C256.764,279.898,257.934,280.688,258.538,281.285 M237.629,389.391l0.217,0.017l0.969,0.143L237.629,389.391 M224.731,383.721
	c0.468,0.454,0.485,0.754,0.039,0.723c-1.194-0.062-3.819-1.771-3.427-2.221c0.114-0.127,0.403-0.096,0.624-0.048
	C223.128,382.458,224.279,383.262,224.731,383.721 M255.133,281.742c0.538,0.835,0.338,1.369-0.186,1.244
	c-1.023-0.236-2.1-2.254-1.592-2.584c0.025-0.018,0.082-0.031,0.105-0.047c0.452-0.018,1.24,0.709,1.663,1.371 M239.669,297.678
	c-0.484,1.631-2.256,2.322-2.985,1.157c-0.788-1.274,0.445-3.371,1.962-3.371h0.016
	C239.815,295.629,239.886,296.881,239.669,297.678 M213.509,327.366c-0.546,1.717-2.556,2.504-3.562,0.835
	c-1.032-1.678,0.083-4.293,2.177-3.973C213.333,324.467,213.963,325.917,213.509,327.366 M230.434,387.531
	c0.401,0.203,0.461,0.244,0.484,0.291v0.022c-0.43,0.078-3.309-1.009-3.225-1.229c0.014-0.05,0.208-0.017,0.322,0
	C228.595,386.752,229.694,387.186,230.434,387.531 M267.219,277.252c1.104,0.27,2.098,0.614,2.239,0.771h-0.017
	c-0.551,0.182-4.404-0.875-4.799-1.184C264.762,276.755,266.133,276.982,267.219,277.252 M228.595,306.838
	c-0.687,1.662-2.604,2.205-3.29,0.932c-0.705-1.293,0.611-3.576,2.379-3.441c1.146,0.18,1.354,1.409,0.901,2.525 M247.637,289.227
	c-0.134,1.26-1.24,1.922-1.95,1.164c-0.838-0.873-0.192-2.867,0.95-2.93c0.875,0.094,1.083,1.126,1.009,1.771 M253.663,275.646
	c0.931,0.188,1.729,0.393,1.854,0.502l-0.018,0.018c-0.225,0.016-4.232-0.898-4.25-0.945
	C251.479,275.212,252.663,275.432,253.663,275.646 M204.025,359.143c0.162,1.08-0.516,1.513-1.453,0.914
	c-1.449-0.914-2.126-3.199-1.048-3.498c0.194-0.039,0.347,0,0.516,0.047C202.942,356.896,203.849,358.055,204.025,359.143
	 M253.18,275.896c0.822,0.244,1.469,0.486,1.574,0.565c-0.176,0.08-3.792-1.103-3.809-1.117
	C251.083,275.348,252.214,275.613,253.18,275.896 M207.503,368.482c0.047,0.127,0.433,1.215-0.63,0.946h-0.016
	c-1.559-0.584-2.848-2.806-2.123-3.184c0.163-0.079,0.405-0.031,0.564,0c1.074,0.426,1.938,1.544,2.189,2.221 M202.17,348.461
	c0,0.157-0.083,1.528-1.291,1.213h-0.031c-1.749-0.691-2.064-3.552-0.84-3.955c0.241-0.078,0.388-0.029,0.563,0h0.016
	C201.718,346.208,202.186,347.594,202.17,348.461 M216.156,315.802c-0.547,1.419-2.28,2.128-2.941,0.867
	c-0.706-1.371,0.685-3.498,2.094-3.206C216.408,313.754,216.48,315.016,216.156,315.802 M251.421,281.915
	c0.203,0.819-0.2,1.229-0.668,0.953c-0.744-0.435-0.854-2.017-0.323-2.136l0.032-0.017
	C250.784,280.702,251.236,281.277,251.421,281.915 M252.422,276.102c0.694,0.283,1.232,0.554,1.258,0.646
	c-0.127,0.095-3.063-1.229-3.08-1.26C250.713,275.488,251.67,275.795,252.422,276.102 M254.025,275.361
	c0.89,0.166,1.691,0.3,1.857,0.378c-0.084,0.062-4.277-0.646-4.301-0.661C251.777,275.078,252.954,275.195,254.025,275.361
	 M251.462,276.273c0.517,0.301,0.839,0.545,0.839,0.615c-0.162,0.109-2.001-1.088-2.096-1.229c0.102,0,0.779,0.346,1.264,0.63
	 M202.107,336.582c-0.083,0.583-0.484,1.496-1.421,1.309h-0.016c-1.478-0.582-1.469-3.149-0.322-3.654
	c0.275-0.127,0.5-0.078,0.645-0.049h0.016C202.024,334.581,202.218,335.826,202.107,336.582 M254.084,275.078
	c0.831,0.094,1.596,0.188,1.773,0.234c-0.193,0.063-3.873-0.377-3.912-0.394C252.124,274.921,253.154,274.999,254.084,275.078
	 M241.58,288.941c-0.386,0.93-1.37,1.308-1.65,0.646c-0.284-0.692,0.449-2.019,1.288-2.019
	C241.686,287.617,241.864,288.264,241.58,288.941 M231.829,296.904c-0.08,0.117-0.643,1.127-1.589,1.062h-0.022
	c-1.09-0.269-0.5-1.978,0.618-2.566c0.338-0.157,0.536-0.157,0.67-0.144C232.104,295.338,232.234,296.109,231.829,296.904
	 M247.696,281.868c-0.083,0.739-0.547,0.929-0.792,0.646c-0.338-0.408-0.031-1.496,0.439-1.527
	C247.665,281.033,247.729,281.545,247.696,281.868 M219.867,305.247c-0.24,0.448-0.886,1.127-1.595,1.039
	c-1.008-0.3-0.5-1.953,0.524-2.505c0.322-0.156,0.562-0.156,0.724-0.127C220.221,303.877,220.134,304.712,219.867,305.247
	 M203.84,324.768c-0.299,1.078-1.291,1.448-1.807,0.692c-0.685-1.056,0.185-2.663,1.115-2.521l0.077,0.016
	C203.794,323.136,204.065,323.947,203.84,324.768 M250.398,276.425c0.323,0.308,0.401,0.497,0.323,0.497
	c-0.228-0.023-1.104-0.961-1.083-1.064h0.016C249.761,275.873,250.173,276.195,250.398,276.425 M225.7,386.381
	c0.44,0.189,0.5,0.205,0.532,0.237c-0.241,0-2.096-0.772-2.155-0.845l0.107,0.031h0.016
	C224.553,385.908,225.207,386.191,225.7,386.381 M253.906,274.787c0.693,0.046,1.316,0.078,1.42,0.134
	c-0.096,0.03-3.025-0.165-3.064-0.165C252.393,274.73,253.229,274.747,253.906,274.787 M207.188,313.581
	c-0.322,0.63-0.984,0.93-1.229,0.362c-0.255-0.614,0.359-1.67,1.052-1.515C207.497,312.62,207.334,313.266,207.188,313.581
	 M249.204,276.448c0.095,0.235,0.095,0.37,0.025,0.348c-0.124-0.024-0.363-0.671-0.284-0.726
	C249.028,276.07,249.166,276.338,249.204,276.448 M235.707,288.318c-0.271,0.418-0.778,0.526-0.838,0.269
	c-0.079-0.26,0.292-0.843,0.807-1c0.107-0.032,0.194,0.039,0.194,0.142c0,0.11,0,0.198-0.016,0.283
	C235.83,288.105,235.774,288.225,235.707,288.318 M253.546,274.512c0.399,0,0.825,0.016,1.231,0.03h-2.072
	C252.762,274.527,253.254,274.512,253.546,274.512 M167.574,243.27c-1.638-0.724-2.725,0.831-2.371,1.871
	c0.516,1.5,2.379,1.129,3.209,0.468c1.573-1.308,0.888-3.025,1.347-4.34C170.206,239.981,168.807,243.83,167.574,243.27"/>
<path fill="#FFFFFF" d="M308.416,334.739c-1.527,29.569-25.623,53.271-55.654,54.793c-34.75,1.747-63.56-26.595-61.789-60.812
	c1.548-29.557,25.628-53.266,55.656-54.793c34.77-1.747,63.567,26.608,61.787,60.826 M338.097,127.887
	c0.08,0.465,0.184,0.925,0.276,1.371c2.301,15.746,2.221,23.819,0.97,30.878c-1.646,9.369-4.585,18.267-10.784,28.195
	c-5.019,7.81-12.424,15.506-21.458,24.557h-0.021c-0.567,0.587-1.198,1.241-1.812,1.917l-0.078,0.099
	c-0.631,0.685-1.262,1.417-1.858,2.174c-0.097,0.161-0.188,0.275-0.3,0.405c-0.805,1.048-1.574,2.154-2.223,3.273l-0.25,0.421
	c-0.16,0.28-0.302,0.563-0.442,0.839l-0.196,0.425c-0.135,0.276-0.244,0.567-0.354,0.839c-0.283,0.705-0.488,1.39-0.631,2.1
	c-1.197,6.049,1.08,15.108,12.021,15.068c0.284,0,0.582-0.027,0.882-0.035c0.275,0,0.552-0.024,0.836-0.04
	c7.229-0.631,17.786-4.88,32.848-15.534l12.179-8.389c0.253-0.161,0.631-0.244,0.977-0.244c0.456,0,0.844,0.137,0.804,0.406
	c0,0.039-0.021,0.078-0.037,0.118c-10.247,16.938-13.904,26.097-15.408,31.968l-0.165,0.642c-0.144,0.607-0.27,1.19-0.361,1.745
	c-0.048,0.179-0.088,0.354-0.104,0.532c-0.032,0.178-0.062,0.339-0.078,0.516l-0.058,0.262l-0.078,0.482
	c-0.029,0.32-0.088,0.643-0.127,0.945l-0.047,0.449l-0.055,0.426c-0.039,0.291-0.087,0.566-0.104,0.843
	c0,0.149-0.03,0.269-0.048,0.409l-0.056,0.4l-0.047,0.401c-0.04,0.188-0.08,0.396-0.08,0.565l-0.054,0.223
	c-0.379,2.299-1.104,4.521-3.389,7.885c-5.403,7.934-11.628,13.776-17.457,18.038c-0.299,0.197-0.583,0.418-0.864,0.622
	c-0.914,0.631-1.812,1.245-2.688,1.812c-0.321,0.205-0.621,0.4-0.92,0.582l-0.93,0.566c-0.174,0.11-0.35,0.213-0.536,0.314
	c-0.292,0.174-0.567,0.361-0.835,0.496l-0.732,0.418c-0.143,0.095-0.292,0.174-0.434,0.229l-1.315,0.726l-0.417,0.195
	c-1.262,0.646-2.459,1.215-3.555,1.719l-0.369,0.166c-0.173,0.086-0.338,0.164-0.505,0.219l-0.541,0.229
	c-3.945-5.521-8.729-10.43-14.118-14.597c-1.52-1.158-3.062-2.261-4.677-3.31l-0.805-0.479c-0.866-0.555-1.741-1.088-2.646-1.592
	l-1.017-0.567c-1.516-0.826-3.073-1.591-4.625-2.301c-0.291-0.147-0.574-0.269-0.857-0.409c-1.135-0.479-2.283-0.96-3.435-1.395
	c-1.655-0.623-3.354-1.189-5.06-1.692l-1.731-0.505c-0.401-0.096-0.834-0.188-1.245-0.315c-1.37-0.329-2.764-0.629-4.174-0.872
	c-0.788-0.166-1.574-0.285-2.381-0.402c-3.452-0.504-7.019-0.786-10.604-0.786c-12.939,0-25.061,3.45-35.466,9.437
	c-2.718,1.575-5.743,2.332-8.76,2.283c-0.213,0-0.43,0-0.63-0.015h-0.039c-0.205,0-0.407-0.017-0.615-0.039l-1.023-0.11
	c-0.407-0.072-0.792-0.148-1.171-0.222c-0.122,0-0.259-0.031-0.386-0.062c-0.128-0.033-0.258-0.08-0.405-0.104
	c-0.162-0.062-0.347-0.109-0.523-0.166c-0.324-0.108-0.624-0.195-0.926-0.308c-0.567-0.203-1.115-0.439-1.647-0.701l-0.258-0.117
	c-0.325-0.157-0.631-0.323-0.943-0.487l-0.461-0.3c-0.243-0.143-0.459-0.268-0.685-0.441c-0.059-0.056-0.13-0.103-0.177-0.156
	c-0.34-0.223-0.662-0.473-0.968-0.726c-1.131-0.915-2.204-1.843-3.258-2.694c-0.042-0.047-0.083-0.078-0.122-0.094
	c-0.484-0.435-0.968-0.835-1.453-1.215c-0.872-0.724-1.726-1.449-2.548-2.126c-0.146-0.127-0.284-0.22-0.43-0.313
	c-0.032-0.057-0.08-0.096-0.127-0.127c-0.146-0.143-0.284-0.234-0.437-0.36c-0.039-0.04-0.079-0.079-0.13-0.11l-0.991-0.787
	l-1.548-1.184c-0.118-0.107-0.241-0.173-0.363-0.243c-0.063-0.079-0.13-0.118-0.185-0.165c-0.122-0.095-0.24-0.167-0.347-0.234
	c-2.902-2.08-5.687-3.633-8.63-4.381l-0.083-0.031c-2.129-0.512-4.308-0.662-6.694-0.309c-0.104,0-0.225,0.031-0.34,0.057
	c-3.346,0.552-7.098,2.057-11.516,4.726l0.162-0.125c0,0,0.016,0,0.016-0.017c0.016,0,0.032-0.031,0.055-0.031
	c0-0.03,0.016-0.03,0.016-0.047c0.025,0,0.025-0.016,0.041-0.016c0.02-0.018,0.035-0.05,0.059-0.05l0.185-0.155
	c0.041-0.062,0.095-0.109,0.146-0.144V260.1c0.194-0.194,0.402-0.465,0.646-0.778c0-0.031,0.016-0.062,0.039-0.078
	c0.146-0.213,0.299-0.474,0.442-0.757l0.122-0.188c0.051-0.143,0.105-0.214,0.162-0.321c0.097-0.223,0.16-0.435,0.267-0.67
	l0.048-0.109c0.062-0.182,0.137-0.379,0.192-0.567l0.067-0.174l0.178-0.646c0.192-0.82,0.345-1.719,0.449-2.773v-0.062l0.083-1.062
	v-0.032l0.015-0.775v-0.371c0-0.419-0.015-0.854-0.03-1.313l-0.024-0.453c-0.042-0.765-0.122-1.58-0.227-2.458
	c-2.501-19.732,14.059-24.942,38.442-16.077c0.646,0.24,1.273,0.402,1.994,0.67c1.45,0.508,5.511,1.961,10.863,2.161
	c3.824,0.08,15.553-1.808,11.182-3.13c-60.458-18.196-49.836-48.519-37.307-81.292c9.623-25.191,5.728-30.812,3.927-35.754
	C141.096,133.491,106.85,176.13,98.8,227.299c-0.969,6.903-1.501,13.954-1.599,21.134c-0.807,60.948,35.459,113.969,88.026,138.381
	c19.602,9.002,41.461,14.035,64.505,14.035c84.351,0,152.749-67.324,152.749-150.37c-0.022-50.576-25.457-95.34-64.41-122.587"/>
<path fill="#FFFFFF" d="M245.219,182.711c-17.665,37.951,18.314,42.67,18.33,42.67c-15.199-7.003-13.071-21.272-13.071-21.272
	c0.566-4.612,1.959-9.09,4-13.292c17.004-34.927,21.666-61.745,13.521-79.799c-3.099-6.838-10.005-11.26-17.586-11.26h-0.13
	c-8.712,0-17.219,0.708-25.505,2.099C260.973,116.397,260.43,150.053,245.219,182.711"/>
<path fill="#FFFFFF" d="M250.022,411.688c-90.712,0-164.262-72.396-164.262-161.68c0-89.283,73.55-161.678,164.253-161.678
	c90.702,0,164.227,72.395,164.227,161.678C414.24,339.298,340.707,411.688,250.022,411.688 M250.014,6.902
	C113.6,6.914,3.036,115.724,3.036,250c0,134.275,110.57,243.114,246.971,243.114c136.396,0,246.957-108.839,246.957-243.114
	c0-134.27-110.562-243.115-246.95-243.115"/>
</svg>
