<?xml version="1.0" encoding="UTF-8"?>
<svg width="45px" height="35px" viewBox="0 0 45 35" version="1.1" xmlns="http://www.w3.org/2000/svg" xmlns:xlink="http://www.w3.org/1999/xlink">
    <!-- Generator: Sketch 3.6 (26304) - http://www.bohemiancoding.com/sketch -->
    <title>Page 1</title>
    <desc>Created with Sketch.</desc>
    <defs>
        <path id="path-1" d="M6.8141198e-21,0.225304762 L6.8141198e-21,4.93086825 L44.9998743,4.93086825 L44.9998743,0.225304762 L0,0.225304762 L6.8141198e-21,0.225304762 Z"></path>
        <path id="path-3" d="M44.9998743,0.275285714 L0,0.275285714 L0,4.98075159 L44.9998743,4.98075159 L44.9998743,0.275285714 L44.9998743,0.275285714 Z"></path>
        <path id="path-5" d="M44.9998743,4.88095238 L0,4.88095238 L0,0.175096032 L44.9998743,0.175096032 L44.9998743,4.88095238 L44.9998743,4.88095238 Z"></path>
    </defs>
    <g id="Page-1" stroke="none" stroke-width="1" fill="none" fill-rule="evenodd">
        <g id="vz-copy-5" transform="translate(-397.000000, -88.000000)">
            <g id="Page-1" transform="translate(397.000000, 88.000000)">
                <g id="Group-3" transform="translate(0.000000, 15.000000)">
                    <mask id="mask-2" fill="white">
                        <use xlink:href="#path-1"></use>
                    </mask>
                    <g id="Clip-2"></g>
                    <path d="M43.1822765,0.225304762 L1.81772346,0.225304762 C0.813896648,0.225304762 -0.000125698324,1.27861429 -0.000125698324,2.57792381 C-0.000125698324,3.87788413 0.813896648,4.93086825 1.81772346,4.93086825 L43.1822765,4.93086825 C44.1863547,4.93086825 44.9998743,3.87788413 44.9998743,2.57792381 C44.9998743,1.27861429 44.1863547,0.225304762 43.1822765,0.225304762" id="Fill-1" fill="#FFFFFF" mask="url(#mask-2)"></path>
                </g>
                <g id="Group-6" transform="translate(0.000000, 0.050111)">
                    <mask id="mask-4" fill="white">
                        <use xlink:href="#path-3"></use>
                    </mask>
                    <g id="Clip-5"></g>
                    <path d="M43.1822765,0.275188095 L1.81772346,0.275188095 C0.813896648,0.275188095 -0.000125698324,1.32849762 -0.000125698324,2.62813254 C-0.000125698324,3.92744206 0.813896648,4.98075159 1.81772346,4.98075159 L43.1822765,4.98075159 C44.1863547,4.98075159 44.9998743,3.92744206 44.9998743,2.62813254 C44.9998743,1.32849762 44.1863547,0.275188095 43.1822765,0.275188095" id="Fill-4" fill="#FFFFFF" mask="url(#mask-4)"></path>
                </g>
                <g id="Group-9" transform="translate(0.000000, 29.949889)">
                    <mask id="mask-6" fill="white">
                        <use xlink:href="#path-5"></use>
                    </mask>
                    <g id="Clip-8"></g>
                    <path d="M43.1822765,0.175096032 L1.81772346,0.175096032 C0.813896648,0.175096032 -0.000125698324,1.22840556 -0.000125698324,2.52771508 C-0.000125698324,3.8276754 0.813896648,4.88098492 1.81772346,4.88098492 L43.1822765,4.88098492 C44.1863547,4.88098492 44.9998743,3.8276754 44.9998743,2.52771508 C44.9998743,1.22840556 44.1863547,0.175096032 43.1822765,0.175096032" id="Fill-7" fill="#FFFFFF" mask="url(#mask-6)"></path>
                </g>
            </g>
        </g>
    </g>
</svg>