<?xml version="1.0" encoding="utf-8"?>
<!-- Generator: Adobe Illustrator 16.0.0, SVG Export Plug-In . SVG Version: 6.00 Build 0)  -->
<!DOCTYPE svg PUBLIC "-//W3C//DTD SVG 1.1//EN" "http://www.w3.org/Graphics/SVG/1.1/DTD/svg11.dtd">
<svg version="1.1" id="Capa_1" xmlns="http://www.w3.org/2000/svg" xmlns:xlink="http://www.w3.org/1999/xlink" x="0px" y="0px"
	 width="200px" height="200px" viewBox="0 0 200 200" enable-background="new 0 0 200 200" xml:space="preserve">
<g>
	<path fill="#FC628E" d="M99.996,0C44.774,0,0,44.774,0,99.996S44.774,200,99.996,200C155.217,200,200,155.217,200,99.996
		S155.217,0,99.996,0z M120.812,154.98c-5.146,2.031-9.244,3.572-12.317,4.639c-3.064,1.066-6.628,1.6-10.684,1.6
		c-6.23,0-11.081-1.523-14.535-4.562s-5.173-6.891-5.173-11.572c0-1.82,0.127-3.684,0.381-5.579c0.263-1.896,0.678-4.03,1.244-6.426
		l6.443-22.755c0.566-2.185,1.058-4.259,1.447-6.189c0.389-1.946,0.576-3.732,0.576-5.358c0-2.896-0.602-4.927-1.795-6.07
		c-1.211-1.143-3.488-1.702-6.883-1.702c-1.659,0-3.369,0.246-5.121,0.762c-1.736,0.533-3.243,1.016-4.479,1.49l1.701-7.01
		c4.216-1.718,8.254-3.191,12.105-4.411c3.852-1.236,7.492-1.845,10.921-1.845c6.188,0,10.963,1.507,14.323,4.487
		c3.345,2.988,5.029,6.874,5.029,11.648c0,0.99-0.119,2.734-0.348,5.223c-0.229,2.498-0.66,4.775-1.286,6.866l-6.409,22.688
		c-0.524,1.819-0.99,3.902-1.413,6.23c-0.415,2.328-0.618,4.105-0.618,5.299c0,3.014,0.669,5.071,2.023,6.163
		c1.338,1.093,3.683,1.643,7.001,1.643c1.565,0,3.318-0.279,5.3-0.821c1.963-0.542,3.386-1.024,4.283-1.439L120.812,154.98z
		 M119.678,62.891c-2.988,2.777-6.586,4.165-10.793,4.165c-4.199,0-7.822-1.388-10.836-4.165c-2.997-2.777-4.512-6.155-4.512-10.1
		c0-3.937,1.523-7.323,4.512-10.125c3.014-2.811,6.637-4.207,10.836-4.207c4.207,0,7.813,1.396,10.793,4.207
		c2.988,2.802,4.487,6.188,4.487,10.125C124.165,56.745,122.666,60.114,119.678,62.891z"/>
</g>
</svg>
