<?xml version="1.0" encoding="utf-8"?>
<!-- Generator: Adobe Illustrator 16.0.0, SVG Export Plug-In . SVG Version: 6.00 Build 0)  -->
<!DOCTYPE svg PUBLIC "-//W3C//DTD SVG 1.1//EN" "http://www.w3.org/Graphics/SVG/1.1/DTD/svg11.dtd">
<svg version="1.1" id="Capa_1" xmlns="http://www.w3.org/2000/svg" xmlns:xlink="http://www.w3.org/1999/xlink" x="0px" y="0px"
	 width="74.765px" height="17.776px" viewBox="0 0 74.765 17.776" enable-background="new 0 0 74.765 17.776" xml:space="preserve">
<g>
	<path d="M10.749,5.931c-0.305,0-0.492-0.387-0.492-0.75c0-0.281,0.551-0.797,0.668-0.797c0.023,0-0.328,0.434-0.258,0.527
		c0.797,0,2.647-1.043,2.647-1.991c0-0.527-0.457-0.832-1.184-0.832c-3.608,0-9.921,6.115-9.664,9.383
		c0.082,0.984,0.808,1.254,1.71,1.254c2.202,0,5.787-1.98,8.563-4.229c0.012-0.012,0.141,0.047,0.094,0.07
		c-2.062,2.015-6.478,4.989-9.043,4.932c-1.253-0.024-2.342-0.574-2.413-2.004c-0.234-4.1,6.689-9.699,10.636-9.699
		c1.02,0,1.734,0.434,1.734,1.336C13.748,4.302,11.896,5.931,10.749,5.931z"/>
	<path d="M14.58,9.175c-0.352,0.352-2.636,2.319-3.128,2.319c-0.023,0-0.082-0.023-0.105-0.035
		c-0.211-0.105-0.516-0.551-0.516-0.784c0-1.277,2.683-3.89,4.838-3.89c0.445,0,1.031,0.188,1.031,0.738
		c0,0.199-0.105,0.398-0.223,0.551c-0.023,0.012-0.047,0-0.035-0.012c0.059-0.105,0.129-0.246,0.129-0.422
		c0-0.352-0.223-0.527-0.574-0.504c-0.679,0.035-1.534,0.527-2.296,1.172c-1.112,0.948-1.991,2.425-1.886,2.483
		c0.023,0.012,0.047,0.012,0.082,0c0.387-0.129,2.026-1.312,2.636-1.828c0.211-0.187,0.972-0.925,1.265-1.089
		c0.234-0.117,0.633,0.527,0.586,0.668c-0.059-0.118-1.112,1.159-1.464,1.909c-0.07,0.164-0.117,0.305-0.117,0.398
		c0.737-0.211,2.413-1.816,3.14-2.495C18,8.297,18.059,8.391,18.023,8.425c-1.019,1.113-2.928,3.069-3.631,3.069
		c-0.059,0-0.117-0.023-0.199-0.07c-0.164-0.094-0.387-0.339-0.387-0.551c0-0.116,0.047-0.257,0.094-0.433
		C14.041,10.007,14.357,9.468,14.58,9.175z"/>
	<path d="M21.573,3.037c0.176-0.141,0.328-0.234,0.434-0.234c0.656-0.035,1.124,0.645,0.902,0.516
		c-0.375-0.176-1.066,0.761-1.582,1.429c1.886-0.094,4.357,0,6.033,0.352c0.094,0.023,0.14,0.047,0,0.035
		c-2.32-0.199-4.464-0.188-6.42,0.105c-0.434,0.539-0.819,1.124-1.288,1.815c-1.02,1.546-1.898,3.034-2.179,3.783
		c0.503,0.06,2.448-1.851,3.139-2.482c0.07-0.059,0.117,0.035,0.082,0.069c-0.573,0.656-2.611,2.789-3.314,3.046
		c-0.152,0.059-0.27,0.012-0.375-0.047c-0.094-0.046-0.352-0.293-0.422-0.468c-0.012-0.023-0.035-0.048-0.035-0.177
		c0-0.351,0.527-1.499,1.968-3.725c0.316-0.48,0.656-0.995,1.09-1.569c-1.113,0.223-1.805,0.784-1.5,0.96
		c-0.188,0-0.585-0.223-0.62-0.597c-0.047-0.527,1.241-0.855,2.554-1.008C20.952,3.646,21.28,3.271,21.573,3.037z"/>
	<path d="M20.765,9.679c1.336-1.417,3.351-2.823,3.749-2.823c0.269,0,0.644,0.633,0.504,0.762c-0.305,0.234-2.098,2.706-2.133,3.256
		c0.727-0.198,2.391-1.827,3.128-2.518c0.082-0.059,0.141,0.035,0.105,0.069c-0.843,0.902-2.237,2.367-3.116,2.882
		c-0.094,0.059-0.269,0.141-0.397,0.176c-0.047,0.012-0.094,0.023-0.176,0c-0.234-0.082-0.504-0.491-0.504-0.703
		c0-0.667,1.253-2.541,1.862-3.092c-0.691,0.316-1.687,1.03-2.53,1.827c-0.117,0.105-0.586,0.598-0.586,0.598
		c-0.351,0.375-0.608,0.726-0.726,1.008c-0.105,0.233-0.082,0.397,0.187,0.433c-0.14,0.059-0.269,0.012-0.386-0.059
		c-0.082-0.035-0.34-0.28-0.422-0.468c-0.035-0.094-0.012-0.469,0.34-1.242c0.62-1.417,2.214-3.713,3.314-5.178
		c0.316-0.434,0.914-1.147,1.418-1.569c0.188-0.141,0.352-0.211,0.445-0.211c0.655,0,1.112,0.691,0.89,0.562
		c-0.234-0.117-0.585,0.129-1.031,0.632C23.553,5.321,21.714,7.793,20.765,9.679z"/>
	<path d="M28.801,9.573c-0.914,1.136-2.776,4.475-3.468,5.775c0.926-1.277,2.624-2.835,2.964-2.94c0.059,0,0.059,0.07,0.059,0.07
		c-1.675,1.335-3.222,3.795-3.351,4.357c-0.022,0.023-0.069,0.035-0.129,0.035c-0.468,0.047-0.644-0.598-0.608-0.809
		c0.035-0.352,0.281-0.866,0.492-1.358c0.609-1.335,2.202-4.439,3.854-6.337c-1.183,1.206-2.835,2.963-3.537,3.104
		c-0.036,0-0.071,0-0.094,0c-0.188,0-0.551-0.315-0.551-0.598c0-0.503,0.645-1.687,1.312-2.611c0.398-0.574,0.879-1.102,1.172-1.336
		c0.059-0.059,0.129-0.07,0.164-0.07c0.281,0,0.726,0.457,0.726,0.762c0,0.047-0.035-0.012-0.129-0.023
		c-0.187-0.023-0.667,0.539-1.065,1.065c-0.598,0.773-1.172,1.805-1.172,2.145c0.562-0.234,1.758-1.289,2.308-1.828
		c0.621-0.597,1.535-1.604,2.179-2.12c0.07-0.059,0.117-0.07,0.177-0.07c0.269,0,0.726,0.469,0.726,0.762
		c0,0.047-0.047-0.012-0.129-0.023c-0.094-0.012-0.245,0.094-0.41,0.27C29.797,8.309,29.316,8.94,28.801,9.573z"/>
	<path d="M40.749,12.221c-0.632,0-1.265,0.035-1.897,0.105c-3.818,0.457-5.869,2.015-5.33,2.401c-0.246,0-0.832-0.41-0.89-0.926
		c-0.059-0.62,1.3-1.229,2.835-1.628c1.007-0.703,2.249-2.132,3.244-3.292c-0.469,0.059-0.925,0.094-1.382,0.094
		c-2.016,0-3.655-0.819-3.784-1.886c-0.023-0.152,0.117-0.445,0.281-0.645c0.34-0.397,0.891-0.421,0.973-0.374
		c-0.211,0.069-0.457,0.27-0.469,0.479c-0.035,0.797,1.358,1.897,3.525,1.897c0.211,0,0.434-0.011,0.668-0.034
		c0.211-0.023,0.41-0.047,0.621-0.082c2.296-2.882,4.768-6.643,6.864-6.689c0.668-0.012,1.195,0.398,1.102,1.148
		c-0.211,2.015-3.362,4.768-7.006,5.786c-1.112,1.324-2.424,2.694-3.373,3.327c0.586-0.105,1.171-0.176,1.675-0.199
		c0.27-0.012,0.539-0.023,0.832-0.023c2.542,0,5.821,0.551,6.958,1.465C44.885,12.607,42.869,12.221,40.749,12.221z M40.62,7.957
		c3.772-1.266,5.963-4.568,5.857-5.564c-0.035-0.305-0.211-0.516-0.516-0.422C45.002,2.264,42.869,5.251,40.62,7.957z"/>
	<path d="M44.193,10.757c-0.012,0.141,0.094,0.223,0.352,0.223c0.855,0,2.999-1.629,4.182-2.612c0.035-0.023,0.117,0.035,0.082,0.07
		c-0.878,0.819-3.209,3.057-4.768,3.057c-0.363,0-0.832-0.422-0.832-0.737c0-0.281,0.071-0.516,0.164-0.773
		c0.281-0.668,0.879-1.406,1.617-2.026c0.972-0.809,2.015-1.172,2.519-1.172c0.176,0,0.714,0.27,0.714,0.598
		c0,0.727-2.249,2.413-3.561,2.448C44.451,10.077,44.229,10.452,44.193,10.757z M44.814,9.597c1.019-0.117,2.964-2.015,3.034-2.46
		C46.548,7.559,45.2,8.976,44.814,9.597z"/>
	<path d="M48.68,10.991c1.078-0.118,3.046-1.699,4.183-2.624c0.035-0.023,0.117,0.023,0.082,0.058
		c-1.008,0.949-3.269,3.069-4.722,3.069c-0.374,0-0.796-0.352-0.854-0.726c-0.012-0.094-0.012-0.211,0.023-0.352
		c0.094-0.492,0.516-1.312,1.3-2.073c0.961-0.949,2.144-1.559,2.976-1.559c0.27,0,0.668,0.398,0.668,0.574
		c0,0.445-0.574,0.879-0.961,1.171c-0.023,0.023-0.082,0-0.059-0.034c0.188-0.188,0.668-1.113,0.574-1.195
		c-1.254,0.023-3.55,2.671-3.55,3.491C48.34,10.979,48.574,11.002,48.68,10.991z"/>
	<path d="M52.92,9.679c1.336-1.417,3.351-2.823,3.749-2.823c0.27,0,0.644,0.633,0.504,0.762c-0.305,0.234-2.098,2.706-2.132,3.256
		c0.726-0.198,2.39-1.827,3.127-2.518c0.082-0.059,0.141,0.035,0.105,0.069c-0.843,0.902-2.237,2.367-3.116,2.882
		c-0.094,0.059-0.269,0.141-0.397,0.176c-0.047,0.012-0.094,0.023-0.176,0c-0.234-0.082-0.504-0.491-0.504-0.703
		c0-0.667,1.253-2.541,1.862-3.092c-0.691,0.316-1.687,1.03-2.53,1.827c-0.117,0.105-0.586,0.598-0.586,0.598
		c-0.351,0.375-0.608,0.726-0.726,1.008c-0.105,0.233-0.082,0.397,0.188,0.433c-0.141,0.059-0.27,0.012-0.387-0.059
		c-0.082-0.035-0.34-0.28-0.422-0.468c-0.035-0.094-0.012-0.469,0.34-1.242c0.62-1.417,2.214-3.713,3.315-5.178
		c0.315-0.434,0.913-1.147,1.417-1.569c0.188-0.141,0.352-0.211,0.445-0.211c0.655,0,1.112,0.691,0.89,0.562
		c-0.234-0.117-0.585,0.129-1.03,0.632C55.708,5.321,53.869,7.793,52.92,9.679z"/>
	<path d="M60.453,10.862c0.738-0.199,2.413-1.805,3.162-2.507c0.071-0.059,0.129,0.035,0.094,0.069
		c-1.019,1.113-2.929,3.046-3.631,3.046c-0.117,0-0.246-0.105-0.363-0.246c-0.129-0.152-0.211-0.327-0.211-0.456
		c0-0.668,1.358-2.624,1.968-3.175c-0.96,0.434-2.683,1.851-3.549,2.788c-0.152,0.152-0.293,0.327-0.422,0.491
		c-0.316,0.376-0.398,0.691-0.223,0.773c-0.352,0.082-0.633-0.293-0.727-0.633c-0.023-0.081,0.035-0.397,0.328-0.937
		c0.281-0.551,0.727-1.242,1.113-1.78c0.422-0.598,0.937-1.219,1.241-1.453c0.047-0.047,0.117-0.059,0.152-0.059
		c0.293,0,0.738,0.457,0.738,0.75c0,0.047-0.047-0.012-0.141-0.023c-0.152-0.012-0.586,0.48-0.938,0.937
		c-0.551,0.727-1.159,1.594-1.335,1.922c0.129-0.188,0.352-0.422,0.598-0.656c1.312-1.289,3.373-2.87,3.771-2.87
		c0.281,0,0.656,0.633,0.504,0.762C62.292,7.84,60.477,10.312,60.453,10.862z"/>
	<path d="M62.995,10.757c-0.012,0.141,0.094,0.223,0.352,0.223c0.854,0,2.998-1.629,4.182-2.612c0.035-0.023,0.117,0.035,0.082,0.07
		c-0.879,0.819-3.21,3.057-4.768,3.057c-0.363,0-0.832-0.422-0.832-0.737c0-0.281,0.07-0.516,0.164-0.773
		c0.281-0.668,0.879-1.406,1.616-2.026c0.973-0.809,2.016-1.172,2.519-1.172c0.176,0,0.715,0.27,0.715,0.598
		c0,0.727-2.249,2.413-3.561,2.448C63.253,10.077,63.03,10.452,62.995,10.757z M63.616,9.597c1.019-0.117,2.963-2.015,3.033-2.46
		C65.35,7.559,64.002,8.976,63.616,9.597z"/>
	<path d="M68.676,6.867c0.071-0.047,0.118-0.059,0.165-0.059c0.28,0,0.726,0.457,0.726,0.75c0,0.047-0.035-0.012-0.129-0.023
		c-0.176-0.012-0.586,0.445-0.937,0.913c-0.316,0.422-0.727,0.973-0.973,1.406c0.621-0.809,1.792-1.792,2.8-2.519
		c0.457-0.328,0.808-0.527,1.055-0.551c0.128-0.012,0.608,0.492,0.526,0.586c-0.258,0.27-1.229,1.125-1.616,2.038
		c0.562-0.047,1.37-0.574,2.097-1.218c0.012-0.012,0.082-0.023,0.094,0c-0.211,0.281-1.616,1.593-2.425,1.593
		c-0.211,0-0.562-0.41-0.562-0.551c0-0.328,0.375-1.007,0.68-1.358c-1.078,0.632-1.628,1.101-2.425,1.979
		c-0.598,0.645-1.3,1.675-1.042,1.792c-0.34,0.082-0.621-0.281-0.703-0.609c-0.023-0.104,0.035-0.328,0.175-0.597
		c0.293-0.668,0.82-1.477,1.289-2.144C67.88,7.699,68.384,7.102,68.676,6.867z"/>
</g>
</svg>
