<?xml version="1.0" encoding="utf-8"?>
<!-- Generator: Adobe Illustrator 16.0.0, SVG Export Plug-In . SVG Version: 6.00 Build 0)  -->
<!DOCTYPE svg PUBLIC "-//W3C//DTD SVG 1.1//EN" "http://www.w3.org/Graphics/SVG/1.1/DTD/svg11.dtd">
<svg version="1.1" id="Layer_1" xmlns="http://www.w3.org/2000/svg" xmlns:xlink="http://www.w3.org/1999/xlink" x="0px" y="0px"
	 width="20px" height="20px" viewBox="0 0 20 20" enable-background="new 0 0 20 20" xml:space="preserve">
<g>
	<g>
		<g>
			<path d="M18.92,9.216H1.081c-0.433,0-0.784,0.351-0.784,0.784c0,0.433,0.351,0.785,0.784,0.785H18.92
				c0.434,0,0.783-0.352,0.783-0.785C19.703,9.567,19.354,9.216,18.92,9.216z"/>
		</g>
	</g>
	<g>
		<g>
			<path d="M18.92,3.27H1.081c-0.433,0-0.784,0.351-0.784,0.784c0,0.433,0.351,0.784,0.784,0.784H18.92
				c0.434,0,0.783-0.351,0.783-0.784C19.703,3.621,19.354,3.27,18.92,3.27z"/>
		</g>
	</g>
	<g>
		<g>
			<path d="M18.92,15.164H1.081c-0.433,0-0.784,0.35-0.784,0.783s0.351,0.783,0.784,0.783H18.92c0.434,0,0.783-0.35,0.783-0.783
				S19.354,15.164,18.92,15.164z"/>
		</g>
	</g>
</g>
</svg>
