<?xml version="1.0" encoding="utf-8"?>
<!-- Generator: Adobe Illustrator 16.0.0, SVG Export Plug-In . SVG Version: 6.00 Build 0)  -->
<!DOCTYPE svg PUBLIC "-//W3C//DTD SVG 1.1//EN" "http://www.w3.org/Graphics/SVG/1.1/DTD/svg11.dtd">
<svg version="1.1" id="Capa_1" xmlns="http://www.w3.org/2000/svg" xmlns:xlink="http://www.w3.org/1999/xlink" x="0px" y="0px"
	 width="110px" height="110px" viewBox="0 0 110 110" enable-background="new 0 0 110 110" xml:space="preserve">
<path fill="#FFFFFF" d="M54.87,0.434c-30.025,0-54.452,24.427-54.452,54.452c0,30.024,24.427,54.452,54.452,54.452
	c30.024,0,54.452-24.428,54.452-54.452C109.322,24.861,84.895,0.434,54.87,0.434z"/>
<path fill="#0D46AC" d="M74.771,53.775l-29.645-20.21c-0.614-0.419-1.453-0.261-1.872,0.354c-0.152,0.223-0.234,0.486-0.234,0.756
	v40.423c0,0.498,0.274,0.957,0.72,1.192c0.194,0.104,0.41,0.151,0.63,0.151c0.262,0,0.526-0.076,0.756-0.232l29.645-20.212
	c0.612-0.422,0.769-1.261,0.348-1.875C75.025,53.986,74.907,53.869,74.771,53.775z"/>
</svg>
