<?xml version="1.0" encoding="utf-8"?>
<!-- Generator: Adobe Illustrator 16.0.0, SVG Export Plug-In . SVG Version: 6.00 Build 0)  -->
<!DOCTYPE svg PUBLIC "-//W3C//DTD SVG 1.1//EN" "http://www.w3.org/Graphics/SVG/1.1/DTD/svg11.dtd">
<svg version="1.1" xmlns="http://www.w3.org/2000/svg" xmlns:xlink="http://www.w3.org/1999/xlink" x="0px" y="0px" width="100px"
	 height="100px" viewBox="0 0 100 100" enable-background="new 0 0 100 100" xml:space="preserve">
<g id="Capa_1" display="none">
	<path display="inline" fill="#F1958D" d="M74.599,0.818L61.837,0.798c-14.335,0-23.6,9.504-23.6,24.215v11.168H25.404
		c-1.108,0.001-2.006,0.899-2.006,2.008v16.18c0.002,1.108,0.899,2.004,2.006,2.004h12.833v40.823c0,1.108,0.896,2.007,2.006,2.007
		h16.741c1.106-0.003,2.003-0.898,2.003-2.007V56.372H73.99c1.108,0,2.005-0.896,2.007-2.004l0.007-16.18
		c0-1.108-0.896-2.007-2.007-2.008h-15.01v-9.468c0-4.547,1.088-6.858,7.013-6.858l8.599-0.005c1.107-0.002,2.003-0.899,2.003-2.006
		V2.822C76.602,1.716,75.706,0.82,74.599,0.818z"/>
</g>
<g id="Capa_1_copia">
	<path fill="#F1958D" d="M99.115,19.548c-3.678,1.632-7.576,2.7-11.57,3.171c4.203-2.515,7.352-6.476,8.855-11.14
		c-3.963,2.342-8.291,3.999-12.803,4.891c-3.807-4.07-9.135-6.375-14.707-6.365c-11.129,0-20.152,9.021-20.152,20.145
		c0,1.58,0.179,3.119,0.524,4.594C32.516,34.002,17.67,25.977,7.731,13.788c-1.792,3.072-2.733,6.57-2.724,10.128
		C5,30.651,8.363,36.944,13.966,40.684c-3.2-0.105-6.329-0.973-9.125-2.529v0.252c0,9.761,6.946,17.905,16.161,19.758
		c-1.69,0.455-3.468,0.705-5.311,0.705c-1.303,0-2.561-0.129-3.794-0.373c2.565,8.012,10.006,13.836,18.819,13.996
		c-7.139,5.596-15.953,8.631-25.023,8.613c-1.626,0-3.229-0.104-4.807-0.277c9.209,5.928,19.934,9.076,30.886,9.064
		c37.067,0,57.327-30.703,57.327-57.326l-0.064-2.61C92.998,27.127,96.412,23.6,99.115,19.548z"/>
</g>
<g id="Capa_1_copia_2" display="none">
	<path display="inline" fill="#F1958D" d="M95.243,21.393c-3.542-4.207-10.082-5.929-22.57-5.929H27.328
		c-12.779,0-19.433,1.827-22.962,6.312c-3.438,4.372-3.438,10.812-3.438,19.727v16.992c0,17.274,4.08,26.041,26.4,26.041h45.345
		c10.834,0,16.834-1.52,20.723-5.232c3.982-3.811,5.677-10.033,5.677-20.809V41.503C99.072,32.104,98.806,25.625,95.243,21.393z
		 M63.942,52.346L43.344,63.111c-0.983,0.507-2.158,0.467-3.106-0.1c-0.946-0.577-1.525-1.604-1.528-2.71V38.846
		c0.006-1.753,1.431-3.167,3.181-3.162c0.501,0.002,0.996,0.122,1.444,0.352L63.93,46.73c1.553,0.803,2.16,2.71,1.359,4.263
		C64.987,51.575,64.518,52.045,63.942,52.346z"/>
</g>
<g id="Capa_4" display="none">
	<g transform="translate(1 1)" display="inline">
		<g>
			<path fill="#F1958D" d="M89.416,71.012c-0.006,10.16-8.24,18.395-18.398,18.404H26.982c-10.153-0.01-18.387-8.244-18.398-18.398
				V26.982C8.595,16.829,16.829,8.595,26.982,8.583h44.03c10.16,0.014,18.387,8.246,18.404,18.398V71.012L89.416,71.012z
				 M71.012-0.133h-44.03C12.014-0.117-0.118,12.014-0.133,26.982v44.03c0.016,14.975,12.147,27.107,27.115,27.121h44.03
				c14.975-0.014,27.105-12.146,27.121-27.121v-44.03C98.117,12.014,85.986-0.117,71.012-0.133z"/>
			<path fill="#F1958D" d="M49,65.604C39.832,65.594,32.408,58.162,32.397,49C32.408,39.838,39.838,32.408,49,32.397
				C58.162,32.408,65.592,39.833,65.604,49C65.592,58.168,58.168,65.594,49,65.604 M49,23.68
				C35.024,23.702,23.696,35.024,23.68,49.005C23.702,62.977,35.024,74.305,49,74.318c13.977-0.008,25.305-11.336,25.319-25.313
				C74.309,35.024,62.977,23.696,49,23.68 M75.381,16.288c-3.521,0.016-6.373,2.867-6.391,6.396c0,1.678,0.688,3.335,1.877,4.524
				c1.189,1.18,2.836,1.865,4.514,1.865c1.684,0,3.336-0.685,4.525-1.865c2.486-2.509,2.486-6.545,0-9.049
				c-1.201-1.195-2.83-1.866-4.525-1.866"/>
		</g>
	</g>
</g>
</svg>
